<svg id="Layer_1" data-name="Layer 1" xmlns="http://www.w3.org/2000/svg" viewBox="0 0 914.59 431"><defs><style>.cls-1{fill:#fff;}</style></defs><title>Inverse</title><path class="cls-1" d="M463.68,104.11a8.3,8.3,0,0,0-8.18,6.69H437.31v-26a8.34,8.34,0,0,0-1.63-16.52A8.34,8.34,0,0,0,434,84.75V125.9h3.31V114.11H455.5a8.34,8.34,0,1,0,8.18-10Zm-48.92-20a8.34,8.34,0,0,0-1.66,16.51V125.9h3.31V100.63a8.34,8.34,0,0,0-1.65-16.51Zm0,13.37a5,5,0,1,1,5-5A5,5,0,0,1,414.76,97.49Zm-41,6.62a8.3,8.3,0,0,0-8.18,6.69H347.45v-26a8.34,8.34,0,0,0-1.65-16.52,8.34,8.34,0,0,0-1.66,16.51V125.9h3.31V114.11h18.17a8.34,8.34,0,1,0,8.18-10ZM180.66,210.35v-14a8.32,8.32,0,1,0-3.3,0v14h-35.5A8.34,8.34,0,0,0,125.35,212a8.34,8.34,0,0,0,16.51,1.67H206.6v-3.31ZM327,104.11a8.3,8.3,0,0,0-8.18,6.69h-18.2v-26a8.34,8.34,0,1,0-3.31,0V125.9h3.31V114.11h18.2a8.34,8.34,0,1,0,8.18-10ZM206.6,153.47v-3.31H161.88a8.35,8.35,0,1,0,0,3.31h30.94v13.16a8.35,8.35,0,1,0,3.31,0V153.47Zm-52.9,3.38a5,5,0,1,1,5-5A5,5,0,0,1,153.7,156.85Zm45.81,18a5,5,0,1,1-5-5A5,5,0,0,1,199.51,174.8Zm7.09,62.69v-3.31h-48a8.36,8.36,0,1,0,0,3.31h30.89v9.81a8.35,8.35,0,1,0,3.31,0v-9.81Zm-56.18,3.37a5,5,0,1,1,5-5A5,5,0,0,1,150.42,240.86Zm45.75,14.62a5,5,0,1,1-5-5A5,5,0,0,1,196.17,255.48ZM375.88,194.4c-3.34,0-5.33,4.58-5.7,16.47H381C381,199.85,379.22,194.4,375.88,194.4Zm0,0c-3.34,0-5.33,4.58-5.7,16.47H381C381,199.85,379.22,194.4,375.88,194.4Zm119.74-56H228.41a9.33,9.33,0,0,0-9.31,9.31V265.78a9.33,9.33,0,0,0,9.31,9.31H495.62a9.33,9.33,0,0,0,9.31-9.31V147.71A9.33,9.33,0,0,0,495.62,138.4ZM277.37,174.07l-19.95,60.47h19.95v14.25H240.82v-12l19.95-60.47H241.56V162.06h35.81Zm26.52,74.72H289.27V182.38h14.62Zm.12-72.73H289.14V161.44H304Zm47.33.37H340.69v72.36H325.57V176.43H314.91V162.06h36.43Zm43.37,46H370.3c.87,10.41,5.21,14,10,14,4.46,0,7.31-1.86,11.65-4.83L393.1,245c-5.08,3.35-9,5.08-14.62,5.08-12.39,0-22.8-11.27-22.8-32.71V214.1c0-21.32,9.17-32.71,20.2-32.71,11.52,0,18.83,11.39,18.83,33.33Zm39.9,24.91A17.79,17.79,0,0,1,425,250c-12.39,0-20.57-10.9-20.57-32.34v-4c0-21.3,9-32.33,20.94-32.33,4.34,0,6.19.37,9.17,1.73v15c-2.48-1.49-4.71-2.49-7.31-2.49-4.59,0-7.93,4.84-7.93,17.85v4.46c0,12.89,3.34,17.84,8.18,17.84,2.1,0,4.71-1.24,7.18-2.85Zm50.56,1.48H470.55v-47c0-4.83-1.86-7.56-4.84-7.56s-5.08,2.73-5.08,7.56v47H446V161.44h14.62v28.87c2.61-5.08,5.95-9.17,11.78-9.17,8.42,0,12.76,7.06,12.76,17.34ZM375.88,194.4c-3.34,0-5.33,4.58-5.7,16.47H381C381,199.85,379.22,194.4,375.88,194.4Zm0,0c-3.34,0-5.33,4.58-5.7,16.47H381C381,199.85,379.22,194.4,375.88,194.4Zm0,0c-3.34,0-5.33,4.58-5.7,16.47H381C381,199.85,379.22,194.4,375.88,194.4Zm0,0c-3.34,0-5.33,4.58-5.7,16.47H381C381,199.85,379.22,194.4,375.88,194.4Zm0,0c-3.34,0-5.33,4.58-5.7,16.47H381C381,199.85,379.22,194.4,375.88,194.4Zm119.74-56H228.41a9.33,9.33,0,0,0-9.31,9.31V265.78a9.33,9.33,0,0,0,9.31,9.31H495.62a9.33,9.33,0,0,0,9.31-9.31V147.71A9.33,9.33,0,0,0,495.62,138.4ZM277.37,174.07l-19.95,60.47h19.95v14.25H240.82v-12l19.95-60.47H241.56V162.06h35.81Zm26.52,74.72H289.27V182.38h14.62Zm.12-72.73H289.14V161.44H304Zm47.33.37H340.69v72.36H325.57V176.43H314.91V162.06h36.43Zm43.37,46H370.3c.87,10.41,5.21,14,10,14,4.46,0,7.31-1.86,11.65-4.83L393.1,245c-5.08,3.35-9,5.08-14.62,5.08-12.39,0-22.8-11.27-22.8-32.71V214.1c0-21.32,9.17-32.71,20.2-32.71,11.52,0,18.83,11.39,18.83,33.33Zm39.9,24.91A17.79,17.79,0,0,1,425,250c-12.39,0-20.57-10.9-20.57-32.34v-4c0-21.3,9-32.33,20.94-32.33,4.34,0,6.19.37,9.17,1.73v15c-2.48-1.49-4.71-2.49-7.31-2.49-4.59,0-7.93,4.84-7.93,17.85v4.46c0,12.89,3.34,17.84,8.18,17.84,2.1,0,4.71-1.24,7.18-2.85Zm50.56,1.48H470.55v-47c0-4.83-1.86-7.56-4.84-7.56s-5.08,2.73-5.08,7.56v47H446V161.44h14.62v28.87c2.61-5.08,5.95-9.17,11.78-9.17,8.42,0,12.76,7.06,12.76,17.34ZM375.88,194.4c-3.34,0-5.33,4.58-5.7,16.47H381C381,199.85,379.22,194.4,375.88,194.4Zm0,0c-3.34,0-5.33,4.58-5.7,16.47H381C381,199.85,379.22,194.4,375.88,194.4Zm0,0c-3.34,0-5.33,4.58-5.7,16.47H381C381,199.85,379.22,194.4,375.88,194.4Zm0,0c-3.34,0-5.33,4.58-5.7,16.47H381C381,199.85,379.22,194.4,375.88,194.4Zm0,0c-3.34,0-5.33,4.58-5.7,16.47H381C381,199.85,379.22,194.4,375.88,194.4Zm119.74-56H228.41a9.33,9.33,0,0,0-9.31,9.31V265.78a9.33,9.33,0,0,0,9.31,9.31H495.62a9.33,9.33,0,0,0,9.31-9.31V147.71A9.33,9.33,0,0,0,495.62,138.4ZM277.37,174.07l-19.95,60.47h19.95v14.25H240.82v-12l19.95-60.47H241.56V162.06h35.81Zm26.52,74.72H289.27V182.38h14.62Zm.12-72.73H289.14V161.44H304Zm47.33.37H340.69v72.36H325.57V176.43H314.91V162.06h36.43Zm43.37,46H370.3c.87,10.41,5.21,14,10,14,4.46,0,7.31-1.86,11.65-4.83L393.1,245c-5.08,3.35-9,5.08-14.62,5.08-12.39,0-22.8-11.27-22.8-32.71V214.1c0-21.32,9.17-32.71,20.2-32.71,11.52,0,18.83,11.39,18.83,33.33Zm39.9,24.91A17.79,17.79,0,0,1,425,250c-12.39,0-20.57-10.9-20.57-32.34v-4c0-21.3,9-32.33,20.94-32.33,4.34,0,6.19.37,9.17,1.73v15c-2.48-1.49-4.71-2.49-7.31-2.49-4.59,0-7.93,4.84-7.93,17.85v4.46c0,12.89,3.34,17.84,8.18,17.84,2.1,0,4.71-1.24,7.18-2.85Zm50.56,1.48H470.55v-47c0-4.83-1.86-7.56-4.84-7.56s-5.08,2.73-5.08,7.56v47H446V161.44h14.62v28.87c2.61-5.08,5.95-9.17,11.78-9.17,8.42,0,12.76,7.06,12.76,17.34ZM375.88,194.4c-3.34,0-5.33,4.58-5.7,16.47H381C381,199.85,379.22,194.4,375.88,194.4Zm0,0c-3.34,0-5.33,4.58-5.7,16.47H381C381,199.85,379.22,194.4,375.88,194.4Zm0,0c-3.34,0-5.33,4.58-5.7,16.47H381C381,199.85,379.22,194.4,375.88,194.4Zm0,0c-3.34,0-5.33,4.58-5.7,16.47H381C381,199.85,379.22,194.4,375.88,194.4Zm0,0c-3.34,0-5.33,4.58-5.7,16.47H381C381,199.85,379.22,194.4,375.88,194.4Zm119.74-56H228.41a9.33,9.33,0,0,0-9.31,9.31V265.78a9.33,9.33,0,0,0,9.31,9.31H495.62a9.33,9.33,0,0,0,9.31-9.31V147.71A9.33,9.33,0,0,0,495.62,138.4ZM277.37,174.07l-19.95,60.47h19.95v14.25H240.82v-12l19.95-60.47H241.56V162.06h35.81Zm26.52,74.72H289.27V182.38h14.62Zm.12-72.73H289.14V161.44H304Zm47.33.37H340.69v72.36H325.57V176.43H314.91V162.06h36.43Zm43.37,46H370.3c.87,10.41,5.21,14,10,14,4.46,0,7.31-1.86,11.65-4.83L393.1,245c-5.08,3.35-9,5.08-14.62,5.08-12.39,0-22.8-11.27-22.8-32.71V214.1c0-21.32,9.17-32.71,20.2-32.71,11.52,0,18.83,11.39,18.83,33.33Zm39.9,24.91A17.79,17.79,0,0,1,425,250c-12.39,0-20.57-10.9-20.57-32.34v-4c0-21.3,9-32.33,20.94-32.33,4.34,0,6.19.37,9.17,1.73v15c-2.48-1.49-4.71-2.49-7.31-2.49-4.59,0-7.93,4.84-7.93,17.85v4.46c0,12.89,3.34,17.84,8.18,17.84,2.1,0,4.71-1.24,7.18-2.85Zm50.56,1.48H470.55v-47c0-4.83-1.86-7.56-4.84-7.56s-5.08,2.73-5.08,7.56v47H446V161.44h14.62v28.87c2.61-5.08,5.95-9.17,11.78-9.17,8.42,0,12.76,7.06,12.76,17.34ZM375.88,194.4c-3.34,0-5.33,4.58-5.7,16.47H381C381,199.85,379.22,194.4,375.88,194.4Zm0,0c-3.34,0-5.33,4.58-5.7,16.47H381C381,199.85,379.22,194.4,375.88,194.4Zm0,0c-3.34,0-5.33,4.58-5.7,16.47H381C381,199.85,379.22,194.4,375.88,194.4Zm0,0c-3.34,0-5.33,4.58-5.7,16.47H381C381,199.85,379.22,194.4,375.88,194.4Zm0,0c-3.34,0-5.33,4.58-5.7,16.47H381C381,199.85,379.22,194.4,375.88,194.4Zm119.74-56H228.41a9.33,9.33,0,0,0-9.31,9.31V265.78a9.33,9.33,0,0,0,9.31,9.31H495.62a9.33,9.33,0,0,0,9.31-9.31V147.71A9.33,9.33,0,0,0,495.62,138.4ZM277.37,174.07l-19.95,60.47h19.95v14.25H240.82v-12l19.95-60.47H241.56V162.06h35.81Zm26.52,74.72H289.27V182.38h14.62Zm.12-72.73H289.14V161.44H304Zm47.33.37H340.69v72.36H325.57V176.43H314.91V162.06h36.43Zm43.37,46H370.3c.87,10.41,5.21,14,10,14,4.46,0,7.31-1.86,11.65-4.83L393.1,245c-5.08,3.35-9,5.08-14.62,5.08-12.39,0-22.8-11.27-22.8-32.71V214.1c0-21.32,9.17-32.71,20.2-32.71,11.52,0,18.83,11.39,18.83,33.33Zm39.9,24.91A17.79,17.79,0,0,1,425,250c-12.39,0-20.57-10.9-20.57-32.34v-4c0-21.3,9-32.33,20.94-32.33,4.34,0,6.19.37,9.17,1.73v15c-2.48-1.49-4.71-2.49-7.31-2.49-4.59,0-7.93,4.84-7.93,17.85v4.46c0,12.89,3.34,17.84,8.18,17.84,2.1,0,4.71-1.24,7.18-2.85Zm50.56,1.48H470.55v-47c0-4.83-1.86-7.56-4.84-7.56s-5.08,2.73-5.08,7.56v47H446V161.44h14.62v28.87c2.61-5.08,5.95-9.17,11.78-9.17,8.42,0,12.76,7.06,12.76,17.34ZM375.88,194.4c-3.34,0-5.33,4.58-5.7,16.47H381C381,199.85,379.22,194.4,375.88,194.4Zm0,0c-3.34,0-5.33,4.58-5.7,16.47H381C381,199.85,379.22,194.4,375.88,194.4Zm0,0c-3.34,0-5.33,4.58-5.7,16.47H381C381,199.85,379.22,194.4,375.88,194.4Zm0,0c-3.34,0-5.33,4.58-5.7,16.47H381C381,199.85,379.22,194.4,375.88,194.4Zm0,0c-3.34,0-5.33,4.58-5.7,16.47H381C381,199.85,379.22,194.4,375.88,194.4Zm119.74-56H228.41a9.33,9.33,0,0,0-9.31,9.31V265.78a9.33,9.33,0,0,0,9.31,9.31H495.62a9.33,9.33,0,0,0,9.31-9.31V147.71A9.33,9.33,0,0,0,495.62,138.4ZM277.37,174.07l-19.95,60.47h19.95v14.25H240.82v-12l19.95-60.47H241.56V162.06h35.81Zm26.52,74.72H289.27V182.38h14.62Zm.12-72.73H289.14V161.44H304Zm47.33.37H340.69v72.36H325.57V176.43H314.91V162.06h36.43Zm43.37,46H370.3c.87,10.41,5.21,14,10,14,4.46,0,7.31-1.86,11.65-4.83L393.1,245c-5.08,3.35-9,5.08-14.62,5.08-12.39,0-22.8-11.27-22.8-32.71V214.1c0-21.32,9.17-32.71,20.2-32.71,11.52,0,18.83,11.39,18.83,33.33Zm39.9,24.91A17.79,17.79,0,0,1,425,250c-12.39,0-20.57-10.9-20.57-32.34v-4c0-21.3,9-32.33,20.94-32.33,4.34,0,6.19.37,9.17,1.73v15c-2.48-1.49-4.71-2.49-7.31-2.49-4.59,0-7.93,4.84-7.93,17.85v4.46c0,12.89,3.34,17.84,8.18,17.84,2.1,0,4.71-1.24,7.18-2.85Zm50.56,1.48H470.55v-47c0-4.83-1.86-7.56-4.84-7.56s-5.08,2.73-5.08,7.56v47H446V161.44h14.62v28.87c2.61-5.08,5.95-9.17,11.78-9.17,8.42,0,12.76,7.06,12.76,17.34ZM375.88,194.4c-3.34,0-5.33,4.58-5.7,16.47H381C381,199.85,379.22,194.4,375.88,194.4Zm0,0c-3.34,0-5.33,4.58-5.7,16.47H381C381,199.85,379.22,194.4,375.88,194.4Zm0,0c-3.34,0-5.33,4.58-5.7,16.47H381C381,199.85,379.22,194.4,375.88,194.4Zm0,0c-3.34,0-5.33,4.58-5.7,16.47H381C381,199.85,379.22,194.4,375.88,194.4Zm0,0c-3.34,0-5.33,4.58-5.7,16.47H381C381,199.85,379.22,194.4,375.88,194.4Zm119.74-56H228.41a9.33,9.33,0,0,0-9.31,9.31V265.78a9.33,9.33,0,0,0,9.31,9.31H495.62a9.33,9.33,0,0,0,9.31-9.31V147.71A9.33,9.33,0,0,0,495.62,138.4ZM277.37,174.07l-19.95,60.47h19.95v14.25H240.82v-12l19.95-60.47H241.56V162.06h35.81Zm26.52,74.72H289.27V182.38h14.62Zm.12-72.73H289.14V161.44H304Zm47.33.37H340.69v72.36H325.57V176.43H314.91V162.06h36.43Zm43.37,46H370.3c.87,10.41,5.21,14,10,14,4.46,0,7.31-1.86,11.65-4.83L393.1,245c-5.08,3.35-9,5.08-14.62,5.08-12.39,0-22.8-11.27-22.8-32.71V214.1c0-21.32,9.17-32.71,20.2-32.71,11.52,0,18.83,11.39,18.83,33.33Zm39.9,24.91A17.79,17.79,0,0,1,425,250c-12.39,0-20.57-10.9-20.57-32.34v-4c0-21.3,9-32.33,20.94-32.33,4.34,0,6.19.37,9.17,1.73v15c-2.48-1.49-4.71-2.49-7.31-2.49-4.59,0-7.93,4.84-7.93,17.85v4.46c0,12.89,3.34,17.84,8.18,17.84,2.1,0,4.71-1.24,7.18-2.85Zm50.56,1.48H470.55v-47c0-4.83-1.86-7.56-4.84-7.56s-5.08,2.73-5.08,7.56v47H446V161.44h14.62v28.87c2.61-5.08,5.95-9.17,11.78-9.17,8.42,0,12.76,7.06,12.76,17.34ZM375.88,194.4c-3.34,0-5.33,4.58-5.7,16.47H381C381,199.85,379.22,194.4,375.88,194.4Zm119.74-56H228.41a9.33,9.33,0,0,0-9.31,9.31V265.78a9.33,9.33,0,0,0,9.31,9.31H495.62a9.33,9.33,0,0,0,9.31-9.31V147.71A9.33,9.33,0,0,0,495.62,138.4ZM277.37,174.07l-19.95,60.47h19.95v14.25H240.82v-12l19.95-60.47H241.56V162.06h35.81Zm26.52,74.72H289.27V182.38h14.62Zm.12-72.73H289.14V161.44H304Zm47.33.37H340.69v72.36H325.57V176.43H314.91V162.06h36.43Zm43.37,46H370.3c.87,10.41,5.21,14,10,14,4.46,0,7.31-1.86,11.65-4.83L393.1,245c-5.08,3.35-9,5.08-14.62,5.08-12.39,0-22.8-11.27-22.8-32.71V214.1c0-21.32,9.17-32.71,20.2-32.71,11.52,0,18.83,11.39,18.83,33.33Zm39.9,24.91A17.79,17.79,0,0,1,425,250c-12.39,0-20.57-10.9-20.57-32.34v-4c0-21.3,9-32.33,20.94-32.33,4.34,0,6.19.37,9.17,1.73v15c-2.48-1.49-4.71-2.49-7.31-2.49-4.59,0-7.93,4.84-7.93,17.85v4.46c0,12.89,3.34,17.84,8.18,17.84,2.1,0,4.71-1.24,7.18-2.85Zm50.56,1.48H470.55v-47c0-4.83-1.86-7.56-4.84-7.56s-5.08,2.73-5.08,7.56v47H446V161.44h14.62v28.87c2.61-5.08,5.95-9.17,11.78-9.17,8.42,0,12.76,7.06,12.76,17.34ZM375.88,194.4c-3.34,0-5.33,4.58-5.7,16.47H381C381,199.85,379.22,194.4,375.88,194.4Zm118.3-68.5H276.39V107.32a8.35,8.35,0,1,0-3.31,0V125.9H230.84a24.24,24.24,0,0,0-24.24,24.24v112a24.24,24.24,0,0,0,24.24,24.24h68.57v18.5H281.74a8.21,8.21,0,0,0-8.27-7.67,8.34,8.34,0,1,0,0,16.67,8.23,8.23,0,0,0,7.87-5.69h18.07v38a8.34,8.34,0,1,0,3.31,0V286.41h21.77v27.93a8.34,8.34,0,1,0,3.31-.34V286.41h67.75v9.22H377.09a8.35,8.35,0,1,0-.51,3.3h19v30.84a8.34,8.34,0,0,0,1.68,16.51,8.34,8.34,0,0,0,1.63-16.52V286.41h43.5v9.22H423.94a8.35,8.35,0,1,0-.51,3.3h18.93v30.83a8.35,8.35,0,1,0,3.31,0V286.41h20.1v21a8.35,8.35,0,1,0,3.31,0v-21h25.1a22.58,22.58,0,0,0,22.57-22.57V148.47A22.58,22.58,0,0,0,494.18,125.9ZM269.7,99.15a5,5,0,1,1,5,5A5,5,0,0,1,269.7,99.15ZM332,322.3a5,5,0,1,1-5-5A5,5,0,0,1,332,322.3Zm140.44-6.69a5,5,0,1,1-5-5A5,5,0,0,1,472.46,315.61Zm37.47-49.83a14.33,14.33,0,0,1-14.31,14.31H228.41a14.33,14.33,0,0,1-14.31-14.31V147.71a14.33,14.33,0,0,1,14.31-14.31H495.62a14.33,14.33,0,0,1,14.31,14.31ZM495.62,138.4H228.41a9.33,9.33,0,0,0-9.31,9.31V265.78a9.33,9.33,0,0,0,9.31,9.31H495.62a9.33,9.33,0,0,0,9.31-9.31V147.71A9.33,9.33,0,0,0,495.62,138.4ZM277.37,174.07l-19.95,60.47h19.95v14.25H240.82v-12l19.95-60.47H241.56V162.06h35.81Zm26.52,74.72H289.27V182.38h14.62Zm.12-72.73H289.14V161.44H304Zm47.33.37H340.69v72.36H325.57V176.43H314.91V162.06h36.43Zm43.37,46H370.3c.87,10.41,5.21,14,10,14,4.46,0,7.31-1.86,11.65-4.83L393.1,245c-5.08,3.35-9,5.08-14.62,5.08-12.39,0-22.8-11.27-22.8-32.71V214.1c0-21.32,9.17-32.71,20.2-32.71,11.52,0,18.83,11.39,18.83,33.33Zm39.9,24.91A17.79,17.79,0,0,1,425,250c-12.39,0-20.57-10.9-20.57-32.34v-4c0-21.3,9-32.33,20.94-32.33,4.34,0,6.19.37,9.17,1.73v15c-2.48-1.49-4.71-2.49-7.31-2.49-4.59,0-7.93,4.84-7.93,17.85v4.46c0,12.89,3.34,17.84,8.18,17.84,2.1,0,4.71-1.24,7.18-2.85Zm50.56,1.48H470.55v-47c0-4.83-1.86-7.56-4.84-7.56s-5.08,2.73-5.08,7.56v47H446V161.44h14.62v28.87c2.61-5.08,5.95-9.17,11.78-9.17,8.42,0,12.76,7.06,12.76,17.34ZM375.88,194.4c-3.34,0-5.33,4.58-5.7,16.47H381C381,199.85,379.22,194.4,375.88,194.4Zm0,0c-3.34,0-5.33,4.58-5.7,16.47H381C381,199.85,379.22,194.4,375.88,194.4Zm0,0c-3.34,0-5.33,4.58-5.7,16.47H381C381,199.85,379.22,194.4,375.88,194.4Zm119.74-56H228.41a9.33,9.33,0,0,0-9.31,9.31V265.78a9.33,9.33,0,0,0,9.31,9.31H495.62a9.33,9.33,0,0,0,9.31-9.31V147.71A9.33,9.33,0,0,0,495.62,138.4ZM277.37,174.07l-19.95,60.47h19.95v14.25H240.82v-12l19.95-60.47H241.56V162.06h35.81Zm26.52,74.72H289.27V182.38h14.62Zm.12-72.73H289.14V161.44H304Zm47.33.37H340.69v72.36H325.57V176.43H314.91V162.06h36.43Zm43.37,46H370.3c.87,10.41,5.21,14,10,14,4.46,0,7.31-1.86,11.65-4.83L393.1,245c-5.08,3.35-9,5.08-14.62,5.08-12.39,0-22.8-11.27-22.8-32.71V214.1c0-21.32,9.17-32.71,20.2-32.71,11.52,0,18.83,11.39,18.83,33.33Zm39.9,24.91A17.79,17.79,0,0,1,425,250c-12.39,0-20.57-10.9-20.57-32.34v-4c0-21.3,9-32.33,20.94-32.33,4.34,0,6.19.37,9.17,1.73v15c-2.48-1.49-4.71-2.49-7.31-2.49-4.59,0-7.93,4.84-7.93,17.85v4.46c0,12.89,3.34,17.84,8.18,17.84,2.1,0,4.71-1.24,7.18-2.85Zm50.56,1.48H470.55v-47c0-4.83-1.86-7.56-4.84-7.56s-5.08,2.73-5.08,7.56v47H446V161.44h14.62v28.87c2.61-5.08,5.95-9.17,11.78-9.17,8.42,0,12.76,7.06,12.76,17.34ZM375.88,194.4c-3.34,0-5.33,4.58-5.7,16.47H381C381,199.85,379.22,194.4,375.88,194.4Zm0,0c-3.34,0-5.33,4.58-5.7,16.47H381C381,199.85,379.22,194.4,375.88,194.4Zm0,0c-3.34,0-5.33,4.58-5.7,16.47H381C381,199.85,379.22,194.4,375.88,194.4Zm119.74-56H228.41a9.33,9.33,0,0,0-9.31,9.31V265.78a9.33,9.33,0,0,0,9.31,9.31H495.62a9.33,9.33,0,0,0,9.31-9.31V147.71A9.33,9.33,0,0,0,495.62,138.4ZM277.37,174.07l-19.95,60.47h19.95v14.25H240.82v-12l19.95-60.47H241.56V162.06h35.81Zm26.52,74.72H289.27V182.38h14.62Zm.12-72.73H289.14V161.44H304Zm47.33.37H340.69v72.36H325.57V176.43H314.91V162.06h36.43Zm43.37,46H370.3c.87,10.41,5.21,14,10,14,4.46,0,7.31-1.86,11.65-4.83L393.1,245c-5.08,3.35-9,5.08-14.62,5.08-12.39,0-22.8-11.27-22.8-32.71V214.1c0-21.32,9.17-32.71,20.2-32.71,11.52,0,18.83,11.39,18.83,33.33Zm39.9,24.91A17.79,17.79,0,0,1,425,250c-12.39,0-20.57-10.9-20.57-32.34v-4c0-21.3,9-32.33,20.94-32.33,4.34,0,6.19.37,9.17,1.73v15c-2.48-1.49-4.71-2.49-7.31-2.49-4.59,0-7.93,4.84-7.93,17.85v4.46c0,12.89,3.34,17.84,8.18,17.84,2.1,0,4.71-1.24,7.18-2.85Zm50.56,1.48H470.55v-47c0-4.83-1.86-7.56-4.84-7.56s-5.08,2.73-5.08,7.56v47H446V161.44h14.62v28.87c2.61-5.08,5.95-9.17,11.78-9.17,8.42,0,12.76,7.06,12.76,17.34ZM375.88,194.4c-3.34,0-5.33,4.58-5.7,16.47H381C381,199.85,379.22,194.4,375.88,194.4Zm0,0c-3.34,0-5.33,4.58-5.7,16.47H381C381,199.85,379.22,194.4,375.88,194.4Zm0,0c-3.34,0-5.33,4.58-5.7,16.47H381C381,199.85,379.22,194.4,375.88,194.4Zm0,0c-3.34,0-5.33,4.58-5.7,16.47H381C381,199.85,379.22,194.4,375.88,194.4Zm0,0c-3.34,0-5.33,4.58-5.7,16.47H381C381,199.85,379.22,194.4,375.88,194.4Zm119.74-56H228.41a9.33,9.33,0,0,0-9.31,9.31V265.78a9.33,9.33,0,0,0,9.31,9.31H495.62a9.33,9.33,0,0,0,9.31-9.31V147.71A9.33,9.33,0,0,0,495.62,138.4ZM277.37,174.07l-19.95,60.47h19.95v14.25H240.82v-12l19.95-60.47H241.56V162.06h35.81Zm26.52,74.72H289.27V182.38h14.62Zm.12-72.73H289.14V161.44H304Zm47.33.37H340.69v72.36H325.57V176.43H314.91V162.06h36.43Zm43.37,46H370.3c.87,10.41,5.21,14,10,14,4.46,0,7.31-1.86,11.65-4.83L393.1,245c-5.08,3.35-9,5.08-14.62,5.08-12.39,0-22.8-11.27-22.8-32.71V214.1c0-21.32,9.17-32.71,20.2-32.71,11.52,0,18.83,11.39,18.83,33.33Zm39.9,24.91A17.79,17.79,0,0,1,425,250c-12.39,0-20.57-10.9-20.57-32.34v-4c0-21.3,9-32.33,20.94-32.33,4.34,0,6.19.37,9.17,1.73v15c-2.48-1.49-4.71-2.49-7.31-2.49-4.59,0-7.93,4.84-7.93,17.85v4.46c0,12.89,3.34,17.84,8.18,17.84,2.1,0,4.71-1.24,7.18-2.85Zm50.56,1.48H470.55v-47c0-4.83-1.86-7.56-4.84-7.56s-5.08,2.73-5.08,7.56v47H446V161.44h14.62v28.87c2.61-5.08,5.95-9.17,11.78-9.17,8.42,0,12.76,7.06,12.76,17.34ZM375.88,194.4c-3.34,0-5.33,4.58-5.7,16.47H381C381,199.85,379.22,194.4,375.88,194.4Zm0,0c-3.34,0-5.33,4.58-5.7,16.47H381C381,199.85,379.22,194.4,375.88,194.4Zm0,0c-3.34,0-5.33,4.58-5.7,16.47H381C381,199.85,379.22,194.4,375.88,194.4Zm0,0c-3.34,0-5.33,4.58-5.7,16.47H381C381,199.85,379.22,194.4,375.88,194.4Zm0,0c-3.34,0-5.33,4.58-5.7,16.47H381C381,199.85,379.22,194.4,375.88,194.4Zm119.74-56H228.41a9.33,9.33,0,0,0-9.31,9.31V265.78a9.33,9.33,0,0,0,9.31,9.31H495.62a9.33,9.33,0,0,0,9.31-9.31V147.71A9.33,9.33,0,0,0,495.62,138.4ZM277.37,174.07l-19.95,60.47h19.95v14.25H240.82v-12l19.95-60.47H241.56V162.06h35.81Zm26.52,74.72H289.27V182.38h14.62Zm.12-72.73H289.14V161.44H304Zm47.33.37H340.69v72.36H325.57V176.43H314.91V162.06h36.43Zm43.37,46H370.3c.87,10.41,5.21,14,10,14,4.46,0,7.31-1.86,11.65-4.83L393.1,245c-5.08,3.35-9,5.08-14.62,5.08-12.39,0-22.8-11.27-22.8-32.71V214.1c0-21.32,9.17-32.71,20.2-32.71,11.52,0,18.83,11.39,18.83,33.33Zm39.9,24.91A17.79,17.79,0,0,1,425,250c-12.39,0-20.57-10.9-20.57-32.34v-4c0-21.3,9-32.33,20.94-32.33,4.34,0,6.19.37,9.17,1.73v15c-2.48-1.49-4.71-2.49-7.31-2.49-4.59,0-7.93,4.84-7.93,17.85v4.46c0,12.89,3.34,17.84,8.18,17.84,2.1,0,4.71-1.24,7.18-2.85Zm50.56,1.48H470.55v-47c0-4.83-1.86-7.56-4.84-7.56s-5.08,2.73-5.08,7.56v47H446V161.44h14.62v28.87c2.61-5.08,5.95-9.17,11.78-9.17,8.42,0,12.76,7.06,12.76,17.34ZM375.88,194.4c-3.34,0-5.33,4.58-5.7,16.47H381C381,199.85,379.22,194.4,375.88,194.4Zm0,0c-3.34,0-5.33,4.58-5.7,16.47H381C381,199.85,379.22,194.4,375.88,194.4Zm0,0c-3.34,0-5.33,4.58-5.7,16.47H381C381,199.85,379.22,194.4,375.88,194.4Zm0,0c-3.34,0-5.33,4.58-5.7,16.47H381C381,199.85,379.22,194.4,375.88,194.4Zm0,0c-3.34,0-5.33,4.58-5.7,16.47H381C381,199.85,379.22,194.4,375.88,194.4Zm119.74-56H228.41a9.33,9.33,0,0,0-9.31,9.31V265.78a9.33,9.33,0,0,0,9.31,9.31H495.62a9.33,9.33,0,0,0,9.31-9.31V147.71A9.33,9.33,0,0,0,495.62,138.4ZM277.37,174.07l-19.95,60.47h19.95v14.25H240.82v-12l19.95-60.47H241.56V162.06h35.81Zm26.52,74.72H289.27V182.38h14.62Zm.12-72.73H289.14V161.44H304Zm47.33.37H340.69v72.36H325.57V176.43H314.91V162.06h36.43Zm43.37,46H370.3c.87,10.41,5.21,14,10,14,4.46,0,7.31-1.86,11.65-4.83L393.1,245c-5.08,3.35-9,5.08-14.62,5.08-12.39,0-22.8-11.27-22.8-32.71V214.1c0-21.32,9.17-32.71,20.2-32.71,11.52,0,18.83,11.39,18.83,33.33Zm39.9,24.91A17.79,17.79,0,0,1,425,250c-12.39,0-20.57-10.9-20.57-32.34v-4c0-21.3,9-32.33,20.94-32.33,4.34,0,6.19.37,9.17,1.73v15c-2.48-1.49-4.71-2.49-7.31-2.49-4.59,0-7.93,4.84-7.93,17.85v4.46c0,12.89,3.34,17.84,8.18,17.84,2.1,0,4.71-1.24,7.18-2.85Zm50.56,1.48H470.55v-47c0-4.83-1.86-7.56-4.84-7.56s-5.08,2.73-5.08,7.56v47H446V161.44h14.62v28.87c2.61-5.08,5.95-9.17,11.78-9.17,8.42,0,12.76,7.06,12.76,17.34ZM375.88,194.4c-3.34,0-5.33,4.58-5.7,16.47H381C381,199.85,379.22,194.4,375.88,194.4Zm0,0c-3.34,0-5.33,4.58-5.7,16.47H381C381,199.85,379.22,194.4,375.88,194.4Zm0,0c-3.34,0-5.33,4.58-5.7,16.47H381C381,199.85,379.22,194.4,375.88,194.4Zm0,0c-3.34,0-5.33,4.58-5.7,16.47H381C381,199.85,379.22,194.4,375.88,194.4Zm0,0c-3.34,0-5.33,4.58-5.7,16.47H381C381,199.85,379.22,194.4,375.88,194.4Zm119.74-56H228.41a9.33,9.33,0,0,0-9.31,9.31V265.78a9.33,9.33,0,0,0,9.31,9.31H495.62a9.33,9.33,0,0,0,9.31-9.31V147.71A9.33,9.33,0,0,0,495.62,138.4ZM277.37,174.07l-19.95,60.47h19.95v14.25H240.82v-12l19.95-60.47H241.56V162.06h35.81Zm26.52,74.72H289.27V182.38h14.62Zm.12-72.73H289.14V161.44H304Zm47.33.37H340.69v72.36H325.57V176.43H314.91V162.06h36.43Zm43.37,46H370.3c.87,10.41,5.21,14,10,14,4.46,0,7.31-1.86,11.65-4.83L393.1,245c-5.08,3.35-9,5.08-14.62,5.08-12.39,0-22.8-11.27-22.8-32.71V214.1c0-21.32,9.17-32.71,20.2-32.71,11.52,0,18.83,11.39,18.83,33.33Zm39.9,24.91A17.79,17.79,0,0,1,425,250c-12.39,0-20.57-10.9-20.57-32.34v-4c0-21.3,9-32.33,20.94-32.33,4.34,0,6.19.37,9.17,1.73v15c-2.48-1.49-4.71-2.49-7.31-2.49-4.59,0-7.93,4.84-7.93,17.85v4.46c0,12.89,3.34,17.84,8.18,17.84,2.1,0,4.71-1.24,7.18-2.85Zm50.56,1.48H470.55v-47c0-4.83-1.86-7.56-4.84-7.56s-5.08,2.73-5.08,7.56v47H446V161.44h14.62v28.87c2.61-5.08,5.95-9.17,11.78-9.17,8.42,0,12.76,7.06,12.76,17.34ZM375.88,194.4c-3.34,0-5.33,4.58-5.7,16.47H381C381,199.85,379.22,194.4,375.88,194.4Zm0,0c-3.34,0-5.33,4.58-5.7,16.47H381C381,199.85,379.22,194.4,375.88,194.4Zm0,0c-3.34,0-5.33,4.58-5.7,16.47H381C381,199.85,379.22,194.4,375.88,194.4Zm0,0c-3.34,0-5.33,4.58-5.7,16.47H381C381,199.85,379.22,194.4,375.88,194.4Zm0,0c-3.34,0-5.33,4.58-5.7,16.47H381C381,199.85,379.22,194.4,375.88,194.4Zm119.74-56H228.41a9.33,9.33,0,0,0-9.31,9.31V265.78a9.33,9.33,0,0,0,9.31,9.31H495.62a9.33,9.33,0,0,0,9.31-9.31V147.71A9.33,9.33,0,0,0,495.62,138.4ZM277.37,174.07l-19.95,60.47h19.95v14.25H240.82v-12l19.95-60.47H241.56V162.06h35.81Zm26.52,74.72H289.27V182.38h14.62Zm.12-72.73H289.14V161.44H304Zm47.33.37H340.69v72.36H325.57V176.43H314.91V162.06h36.43Zm43.37,46H370.3c.87,10.41,5.21,14,10,14,4.46,0,7.31-1.86,11.65-4.83L393.1,245c-5.08,3.35-9,5.08-14.62,5.08-12.39,0-22.8-11.27-22.8-32.71V214.1c0-21.32,9.17-32.71,20.2-32.71,11.52,0,18.83,11.39,18.83,33.33Zm39.9,24.91A17.79,17.79,0,0,1,425,250c-12.39,0-20.57-10.9-20.57-32.34v-4c0-21.3,9-32.33,20.94-32.33,4.34,0,6.19.37,9.17,1.73v15c-2.48-1.49-4.71-2.49-7.31-2.49-4.59,0-7.93,4.84-7.93,17.85v4.46c0,12.89,3.34,17.84,8.18,17.84,2.1,0,4.71-1.24,7.18-2.85Zm50.56,1.48H470.55v-47c0-4.83-1.86-7.56-4.84-7.56s-5.08,2.73-5.08,7.56v47H446V161.44h14.62v28.87c2.61-5.08,5.95-9.17,11.78-9.17,8.42,0,12.76,7.06,12.76,17.34ZM375.88,194.4c-3.34,0-5.33,4.58-5.7,16.47H381C381,199.85,379.22,194.4,375.88,194.4Zm0,0c-3.34,0-5.33,4.58-5.7,16.47H381C381,199.85,379.22,194.4,375.88,194.4Zm0,0c-3.34,0-5.33,4.58-5.7,16.47H381C381,199.85,379.22,194.4,375.88,194.4Zm0,0c-3.34,0-5.33,4.58-5.7,16.47H381C381,199.85,379.22,194.4,375.88,194.4Zm0,0c-3.34,0-5.33,4.58-5.7,16.47H381C381,199.85,379.22,194.4,375.88,194.4Zm119.74-56H228.41a9.33,9.33,0,0,0-9.31,9.31V265.78a9.33,9.33,0,0,0,9.31,9.31H495.62a9.33,9.33,0,0,0,9.31-9.31V147.71A9.33,9.33,0,0,0,495.62,138.4ZM277.37,174.07l-19.95,60.47h19.95v14.25H240.82v-12l19.95-60.47H241.56V162.06h35.81Zm26.52,74.72H289.27V182.38h14.62Zm.12-72.73H289.14V161.44H304Zm47.33.37H340.69v72.36H325.57V176.43H314.91V162.06h36.43Zm43.37,46H370.3c.87,10.41,5.21,14,10,14,4.46,0,7.31-1.86,11.65-4.83L393.1,245c-5.08,3.35-9,5.08-14.62,5.08-12.39,0-22.8-11.27-22.8-32.71V214.1c0-21.32,9.17-32.71,20.2-32.71,11.52,0,18.83,11.39,18.83,33.33Zm39.9,24.91A17.79,17.79,0,0,1,425,250c-12.39,0-20.57-10.9-20.57-32.34v-4c0-21.3,9-32.33,20.94-32.33,4.34,0,6.19.37,9.17,1.73v15c-2.48-1.49-4.71-2.49-7.31-2.49-4.59,0-7.93,4.84-7.93,17.85v4.46c0,12.89,3.34,17.84,8.18,17.84,2.1,0,4.71-1.24,7.18-2.85Zm50.56,1.48H470.55v-47c0-4.83-1.86-7.56-4.84-7.56s-5.08,2.73-5.08,7.56v47H446V161.44h14.62v28.87c2.61-5.08,5.95-9.17,11.78-9.17,8.42,0,12.76,7.06,12.76,17.34ZM375.88,194.4c-3.34,0-5.33,4.58-5.7,16.47H381C381,199.85,379.22,194.4,375.88,194.4Zm0,0c-3.34,0-5.33,4.58-5.7,16.47H381C381,199.85,379.22,194.4,375.88,194.4Zm0,0c-3.34,0-5.33,4.58-5.7,16.47H381C381,199.85,379.22,194.4,375.88,194.4Z"/><path class="cls-1" d="M531.76,206.91v-3c0-30.36,11.15-42.5,25.4-42.5A20.78,20.78,0,0,1,566,163a1.73,1.73,0,0,1,1.05,1.58V179c-3.09-1.85-5.57-2.85-8.42-2.85-6.57,0-11.53,5.82-11.53,27.64V207c0,22.8,4.84,27.63,11.78,27.63a16.35,16.35,0,0,0,8.42-2.73v13.82a1.73,1.73,0,0,1-.94,1.55,21.37,21.37,0,0,1-10.21,2.1C542.29,249.41,531.76,237.15,531.76,206.91Zm47.7-22.84a1.69,1.69,0,0,1,1.69-1.69h12.94v8.3c2-5.83,5.08-9.42,10.65-9v17.59h-.25q-10.4,0-10.4,14.13V247.1a1.69,1.69,0,0,1-1.7,1.69H581.15a1.69,1.69,0,0,1-1.69-1.69Zm32.35,46.26v-2.11c0-14.86,5.94-21.06,14.74-21.06a17.76,17.76,0,0,1,8.8,2.48v-4q0-10.39-9.29-10.4a22.9,22.9,0,0,0-8.73,2,1.68,1.68,0,0,1-2.3-1.57V185.64A1.74,1.74,0,0,1,616.1,184a34.29,34.29,0,0,1,12.19-2.39c7.31,0,12,1.73,15.61,5.32,4,4,6,9.92,6,17.72V247.1a1.69,1.69,0,0,1-1.69,1.69H635.23v-7.06c-2.6,5.45-6.32,8.18-10.91,8.18C616.89,249.91,611.81,242.6,611.81,230.33Zm23.54,1v-11.4a11.6,11.6,0,0,0-4.59-1.36c-3,0-5,2.47-5,8.8v1.73c0,6.57,2,8.55,4.58,8.55S635.35,235.66,635.35,231.32Zm28.75-37H660V182.38h4.09v-4.84c0-5.32,1.36-9.41,4.09-12.14s7.06-4.21,12.63-4.21a22.06,22.06,0,0,1,5.46.49v12.15a6.85,6.85,0,0,0-1.74-.12c-3.59,0-5.82,2-5.82,6.06v2.61h7.56v11.89h-7.56V247.1a1.69,1.69,0,0,1-1.69,1.69H665.79a1.69,1.69,0,0,1-1.69-1.69Zm33.58,43.12V194.27h-4V182.38h4V167.09a1.69,1.69,0,0,1,1.69-1.69h11.24a1.69,1.69,0,0,1,1.69,1.69v15.29h7.8v11.89h-7.8v38.17c0,3,1.49,4.09,4.09,4.09a9.75,9.75,0,0,0,3.59-.75v11.65a18.42,18.42,0,0,1-8.67,2.23C704.37,249.66,697.68,247.43,697.68,237.39Zm31.47,8.38V235.3a1.7,1.7,0,0,1,2.47-1.49c3.9,1.89,7.27,3.09,10,3.09,3.59,0,5.45-1.74,5.45-5.33v-.12c0-2.36-1-4.84-7.44-10.91C732.87,214,728.41,208,728.41,199.6v-.25c0-11,7.43-18,18.83-18a29.82,29.82,0,0,1,9.71,1.33,1.74,1.74,0,0,1,1.2,1.64v10.46a1.68,1.68,0,0,1-2.34,1.56,19.44,19.44,0,0,0-7.7-1.86c-3.59,0-5.58,1.73-5.58,4.59v.12c0,2.36,1.12,4.33,7.93,10.9,8.18,7.81,10.79,13.26,10.79,20.82v.25c0,11.52-8.06,18.83-18.59,18.83a34.74,34.74,0,0,1-12.43-2.65A1.73,1.73,0,0,1,729.15,245.77Zm51.55-14.2h0a8.55,8.55,0,0,1,8.55,8.55v.12a8.55,8.55,0,0,1-8.55,8.55h0a8.55,8.55,0,0,1-8.55-8.55v-.12A8.55,8.55,0,0,1,780.7,231.57Z"/></svg>