<svg id="Layer_1" data-name="Layer 1" xmlns="http://www.w3.org/2000/svg" xmlns:xlink="http://www.w3.org/1999/xlink" viewBox="0 0 914.59 431"><defs><style>.cls-1{fill:none;}.cls-2{fill:url(#linear-gradient);}.cls-3{fill:#fff;}.cls-4{fill:#712886;}.cls-5{clip-path:url(#clip-path);}.cls-6{clip-path:url(#clip-path-2);}.cls-7{opacity:0.24;}</style><linearGradient id="linear-gradient" x1="169.85" y1="105.46" x2="504.85" y2="291.15" gradientUnits="userSpaceOnUse"><stop offset="0" stop-color="#f0e277"/><stop offset="0.49" stop-color="#ba8c3f"/><stop offset="0.77" stop-color="#b6883c"/><stop offset="1" stop-color="#e9dd58"/></linearGradient><clipPath id="clip-path"><rect class="cls-1" x="206.6" y="125.9" width="315.19" height="161.69"/></clipPath><clipPath id="clip-path-2"><path class="cls-1" d="M494.18,125.9H276.38V107.32a8.34,8.34,0,1,0-3.31,0V125.9H230.84a24.24,24.24,0,0,0-24.24,24.24v112a24.24,24.24,0,0,0,24.24,24.24h68.57v18.5H281.74a8.21,8.21,0,0,0-8.28-7.67,8.34,8.34,0,0,0,0,16.67,8.23,8.23,0,0,0,7.88-5.69h18.07v38a8.34,8.34,0,1,0,3.31,0V286.41h21.77v27.93a8.34,8.34,0,1,0,3.3-.34V286.41h67.75v9.22H377.08a8.33,8.33,0,0,0-16.65.41,8.33,8.33,0,0,0,16.15,2.89h19v30.84a8.34,8.34,0,0,0,1.69,16.51,8.34,8.34,0,0,0,1.62-16.52V286.41h43.51v9.22H423.94a8.35,8.35,0,1,0-.51,3.3h18.93v30.83a8.35,8.35,0,1,0,3.31,0V286.41h20.1v21a8.35,8.35,0,1,0,3.31,0v-21h25.1a22.58,22.58,0,0,0,22.57-22.57V148.47A22.58,22.58,0,0,0,494.18,125.9ZM269.69,99.15a5,5,0,1,1,5,5A5,5,0,0,1,269.69,99.15ZM332,322.3a5,5,0,1,1-5-5A5,5,0,0,1,332,322.3Zm140.45-6.69a5,5,0,1,1-5-5A5,5,0,0,1,472.46,315.61Zm-322-88.12a8.34,8.34,0,1,0,8.18,10h30.88v9.81a8.35,8.35,0,1,0,3.31,0v-9.81H206.6v-3.31h-48A8.36,8.36,0,0,0,150.41,227.49Zm45.75,28a5,5,0,1,1-5-5A5,5,0,0,1,196.16,255.48Zm-45.75-14.62a5,5,0,1,1,5-5A5,5,0,0,1,150.41,240.86Zm3.28-97.39a8.35,8.35,0,1,0,8.18,10h30.95v13.16a8.35,8.35,0,1,0,3.31,0V153.47H206.6v-3.31H161.87A8.36,8.36,0,0,0,153.69,143.47Zm0,13.38a5,5,0,1,1,5-5A5,5,0,0,1,153.69,156.85Zm45.82,18a5,5,0,1,1-5-5A5,5,0,0,1,199.51,174.8Zm91.1-98.22a8.34,8.34,0,1,1,10,8.17V110.8h18.2a8.34,8.34,0,1,1,0,3.31h-18.2V125.9h-3.31V84.76A8.41,8.41,0,0,1,290.61,76.58Zm-110,133.77H206.6v3.31H141.86a8.36,8.36,0,1,1,0-3.31h35.49v-14A8.34,8.34,0,0,1,179,179.83a8.34,8.34,0,0,1,1.64,16.51ZM337.46,76.58a8.34,8.34,0,1,1,16.68,0,8.41,8.41,0,0,1-6.7,8.18v26h18.18a8.34,8.34,0,1,1,0,3.31H347.44V125.9h-3.31V84.75A8.34,8.34,0,0,1,337.46,76.58Zm75.64,24V125.9h3.31V100.63a8.34,8.34,0,1,0-3.31,0Zm1.66-13.2a5,5,0,1,1-5,5A5,5,0,0,1,414.76,87.43Zm12.58-10.85a8.34,8.34,0,1,1,16.68,0,8.41,8.41,0,0,1-6.71,8.18v26H455.5a8.34,8.34,0,1,1,0,3.31H437.31V125.9H434V84.75A8.35,8.35,0,0,1,427.34,76.58Z"/></clipPath></defs><title>Colour</title><path class="cls-2" d="M494.18,125.9H276.38V107.32a8.34,8.34,0,1,0-3.31,0V125.9H230.84a24.24,24.24,0,0,0-24.24,24.24v112a24.24,24.24,0,0,0,24.24,24.24h68.57v18.5H281.74a8.21,8.21,0,0,0-8.28-7.67,8.34,8.34,0,0,0,0,16.67,8.23,8.23,0,0,0,7.88-5.69h18.07v38a8.34,8.34,0,1,0,3.31,0V286.41h21.77v27.93a8.34,8.34,0,1,0,3.3-.34V286.41h67.75v9.22H377.08a8.33,8.33,0,0,0-16.65.41,8.33,8.33,0,0,0,16.15,2.89h19v30.84a8.34,8.34,0,0,0,1.69,16.51,8.34,8.34,0,0,0,1.62-16.52V286.41h43.51v9.22H423.94a8.35,8.35,0,1,0-.51,3.3h18.93v30.83a8.35,8.35,0,1,0,3.31,0V286.41h20.1v21a8.35,8.35,0,1,0,3.31,0v-21h25.1a22.58,22.58,0,0,0,22.57-22.57V148.47A22.58,22.58,0,0,0,494.18,125.9ZM269.69,99.15a5,5,0,1,1,5,5A5,5,0,0,1,269.69,99.15ZM332,322.3a5,5,0,1,1-5-5A5,5,0,0,1,332,322.3Zm140.45-6.69a5,5,0,1,1-5-5A5,5,0,0,1,472.46,315.61Zm-322-88.12a8.34,8.34,0,1,0,8.18,10h30.88v9.81a8.35,8.35,0,1,0,3.31,0v-9.81H206.6v-3.31h-48A8.36,8.36,0,0,0,150.41,227.49Zm45.75,28a5,5,0,1,1-5-5A5,5,0,0,1,196.16,255.48Zm-45.75-14.62a5,5,0,1,1,5-5A5,5,0,0,1,150.41,240.86Zm3.28-97.39a8.35,8.35,0,1,0,8.18,10h30.95v13.16a8.35,8.35,0,1,0,3.31,0V153.47H206.6v-3.31H161.87A8.36,8.36,0,0,0,153.69,143.47Zm0,13.38a5,5,0,1,1,5-5A5,5,0,0,1,153.69,156.85Zm45.82,18a5,5,0,1,1-5-5A5,5,0,0,1,199.51,174.8Zm91.1-98.22a8.34,8.34,0,1,1,10,8.17V110.8h18.2a8.34,8.34,0,1,1,0,3.31h-18.2V125.9h-3.31V84.76A8.41,8.41,0,0,1,290.61,76.58Zm-110,133.77H206.6v3.31H141.86a8.36,8.36,0,1,1,0-3.31h35.49v-14A8.34,8.34,0,0,1,179,179.83a8.34,8.34,0,0,1,1.64,16.51ZM337.46,76.58a8.34,8.34,0,1,1,16.68,0,8.41,8.41,0,0,1-6.7,8.18v26h18.18a8.34,8.34,0,1,1,0,3.31H347.44V125.9h-3.31V84.75A8.34,8.34,0,0,1,337.46,76.58Zm75.64,24V125.9h3.31V100.63a8.34,8.34,0,1,0-3.31,0Zm1.66-13.2a5,5,0,1,1-5,5A5,5,0,0,1,414.76,87.43Zm12.58-10.85a8.34,8.34,0,1,1,16.68,0,8.41,8.41,0,0,1-6.71,8.18v26H455.5a8.34,8.34,0,1,1,0,3.31H437.31V125.9H434V84.75A8.35,8.35,0,0,1,427.34,76.58Z"/><path class="cls-3" d="M240.81,236.77l19.95-60.47h-19.2V162.06h35.81v12l-19.95,60.47h19.95v14.25H240.81Z"/><path class="cls-3" d="M289.14,161.44H304v14.62H289.14Zm.13,20.94h14.61v66.41H289.27Z"/><path class="cls-3" d="M325.57,176.43H314.91V162.06h36.43v14.37H340.69v72.36H325.57Z"/><path class="cls-3" d="M355.68,217.32V214.1c0-21.32,9.17-32.71,20.2-32.71,11.52,0,18.83,11.39,18.83,33.33v7.68H370.3c.87,10.41,5.21,14,10,14,4.46,0,7.31-1.86,11.65-4.83L393.1,245c-5.08,3.35-9,5.08-14.62,5.08C366.09,250,355.68,238.76,355.68,217.32ZM381,210.87c0-11-1.74-16.47-5.08-16.47s-5.33,4.58-5.7,16.47Z"/><path class="cls-3" d="M404.38,217.69v-4c0-21.3,9-32.33,20.94-32.33,4.33,0,6.19.37,9.17,1.73v15c-2.48-1.49-4.71-2.49-7.31-2.49-4.59,0-7.93,4.84-7.93,17.85v4.46c0,12.89,3.34,17.84,8.17,17.84,2.11,0,4.71-1.24,7.19-2.85v14.38A17.82,17.82,0,0,1,425,250C412.56,250,404.38,239.13,404.38,217.69Z"/><path class="cls-3" d="M446,161.44h14.62v28.87c2.6-5.08,5.95-9.17,11.77-9.17,8.43,0,12.77,7.06,12.77,17.34v50.31H470.54v-47c0-4.83-1.86-7.56-4.83-7.56s-5.08,2.73-5.08,7.56v47H446Z"/><path class="cls-4" d="M531.76,206.91v-3c0-30.36,11.15-42.5,25.4-42.5A20.78,20.78,0,0,1,566,163a1.73,1.73,0,0,1,1.05,1.58V179c-3.09-1.85-5.57-2.85-8.42-2.85-6.57,0-11.53,5.82-11.53,27.64V207c0,22.8,4.84,27.63,11.78,27.63a16.35,16.35,0,0,0,8.42-2.73v13.82a1.73,1.73,0,0,1-.94,1.55,21.37,21.37,0,0,1-10.21,2.1C542.29,249.41,531.76,237.15,531.76,206.91Zm47.7-22.84a1.69,1.69,0,0,1,1.69-1.69h12.94v8.3c2-5.83,5.08-9.42,10.65-9v17.59h-.25q-10.4,0-10.4,14.13V247.1a1.69,1.69,0,0,1-1.7,1.69H581.15a1.69,1.69,0,0,1-1.69-1.69Zm32.35,46.26v-2.11c0-14.86,5.94-21.06,14.74-21.06a17.76,17.76,0,0,1,8.8,2.48v-4q0-10.39-9.29-10.4a22.9,22.9,0,0,0-8.73,2,1.68,1.68,0,0,1-2.3-1.57V185.64A1.74,1.74,0,0,1,616.1,184a34.29,34.29,0,0,1,12.19-2.39c7.31,0,12,1.73,15.61,5.32,4,4,6,9.92,6,17.72V247.1a1.69,1.69,0,0,1-1.7,1.69H635.23v-7.06c-2.6,5.45-6.32,8.18-10.91,8.18C616.89,249.91,611.81,242.6,611.81,230.33Zm23.54,1v-11.4a11.6,11.6,0,0,0-4.59-1.36c-3,0-5,2.47-5,8.8v1.73c0,6.57,2,8.55,4.58,8.55S635.35,235.66,635.35,231.32Zm28.75-37H660V182.38h4.09v-4.84c0-5.32,1.36-9.41,4.09-12.14s7.06-4.21,12.63-4.21a22.06,22.06,0,0,1,5.46.49v12.15a6.85,6.85,0,0,0-1.74-.12c-3.59,0-5.82,2-5.82,6.06v2.61h7.56v11.89h-7.56V247.1a1.69,1.69,0,0,1-1.69,1.69H665.79a1.68,1.68,0,0,1-1.69-1.69Zm33.58,43.12V194.27h-4V182.38h4V167.09a1.69,1.69,0,0,1,1.69-1.69h11.24a1.69,1.69,0,0,1,1.69,1.69v15.29h7.8v11.89h-7.8v38.17c0,3,1.49,4.09,4.09,4.09a9.75,9.75,0,0,0,3.59-.75v11.65a18.42,18.42,0,0,1-8.67,2.23C704.37,249.66,697.68,247.43,697.68,237.39Zm31.47,8.38V235.3a1.7,1.7,0,0,1,2.47-1.49c3.9,1.89,7.27,3.09,10,3.09,3.59,0,5.45-1.74,5.45-5.33v-.12c0-2.36-1-4.84-7.44-10.91C732.87,214,728.41,208,728.41,199.6v-.25c0-11,7.43-18,18.83-18a29.82,29.82,0,0,1,9.71,1.33,1.74,1.74,0,0,1,1.2,1.64v10.46a1.68,1.68,0,0,1-2.34,1.56,19.44,19.44,0,0,0-7.7-1.86c-3.6,0-5.58,1.73-5.58,4.59v.12c0,2.36,1.12,4.33,7.93,10.9,8.18,7.81,10.78,13.26,10.78,20.82v.25c0,11.52-8,18.83-18.58,18.83a34.84,34.84,0,0,1-12.44-2.65A1.73,1.73,0,0,1,729.15,245.77Zm51.55-14.2h0a8.55,8.55,0,0,1,8.55,8.55v.12a8.55,8.55,0,0,1-8.55,8.55h0a8.55,8.55,0,0,1-8.55-8.55v-.12A8.55,8.55,0,0,1,780.7,231.57Z"/><g class="cls-5"><g class="cls-6"><g class="cls-7"><g id="circuit_heart" data-name="circuit heart"><path class="cls-3" d="M659.64,132.5a6.8,6.8,0,1,0-6.8-6.8A6.8,6.8,0,0,0,659.64,132.5Zm0-10.38a3.59,3.59,0,1,1-3.59,3.58A3.59,3.59,0,0,1,659.64,122.12Z"/><path class="cls-3" d="M494.21,312.15A6.8,6.8,0,1,0,501,319,6.81,6.81,0,0,0,494.21,312.15Zm0,10.38A3.58,3.58,0,1,1,497.8,319,3.58,3.58,0,0,1,494.21,322.53Z"/><path class="cls-3" d="M288,315.76a6.91,6.91,0,0,0-5,6.67v.25a7,7,0,0,0,13.92-.25v-.25a6.86,6.86,0,0,0-5-6.41v-9.85c0-.33,0-.67,0-1l-.71-.71-1.42-1.42-9-9L262.94,276l-6.74-6.74c-.13-.23-.4-.16-.63-.17H197.23a6.91,6.91,0,0,0-6.66-5h-.26a7,7,0,0,0,.25,13.91h.26a6.92,6.92,0,0,0,4.84-2.21,6.13,6.13,0,0,0,1.56-2.82h56.95c.13,0,.28,0,.36.1l5.68,5.69L278,296.54l8.78,8.78.81.81.4.4a3.47,3.47,0,0,1,0,.56Zm-95.15-42.59a3.08,3.08,0,0,1-2.16,1h-.12a3.11,3.11,0,0,1-.11-6.22h0a3.12,3.12,0,0,1,3.21,3A3.07,3.07,0,0,1,192.84,273.17Zm97,46.16a3.09,3.09,0,0,1,3.23,3v.11a3.11,3.11,0,0,1-6.22.11h0A3.11,3.11,0,0,1,289.8,319.33Z"/><path class="cls-3" d="M494.21,289.88a6.8,6.8,0,1,0,6.8,6.8A6.81,6.81,0,0,0,494.21,289.88Zm0,10.39a3.59,3.59,0,1,1,3.59-3.59A3.59,3.59,0,0,1,494.21,300.27Z"/><path class="cls-3" d="M666.73,219.1a6.91,6.91,0,0,0-6.66-5h-.26a6.86,6.86,0,0,0-4.84,2.21,6.94,6.94,0,0,0-1.56,2.8l-29.55-.5-7.65-.13-3.83-.07-1.91,0h-1l-1.1,0-8.78.34-4.39.18-1.1,0-.55,0h-.2V219l0,.27.22,2.18.22,2.18.11,1.09,0,.28,0,.13a.47.47,0,0,0,.1.1l.4.37,3.25,3c2.16,1.94,4.36,4,6.47,5.86l12,9.52,12,9.51,6,4.77,2.49,2,.54.43a2.55,2.55,0,0,1,0,.68v1.25l-1,.34a2.65,2.65,0,0,0-1,.41,6.7,6.7,0,0,0-1.59,1.51,6.89,6.89,0,0,0-1.42,4.21v.25a7,7,0,0,0,13.92-.25v-.25a6.9,6.9,0,0,0-2.21-4.85,12.48,12.48,0,0,0-1.33-1,4,4,0,0,0-1.49-.76V260a6.75,6.75,0,0,0,0-1.2l-1-.76-3.51-2.78-6-4.76-12-9.52-12-9.53-4.43-3.52L600,226.2c-.51-.21-.34-.78-.44-1.21l-.13-1.38-.14-1.38c-.14-.33.26-.18.45-.21h.69l2.77.05,5.54.09,15,.26,29.59.5a6.92,6.92,0,0,0,6.67,5.06h.26a6.88,6.88,0,0,0,4.84-2.21,6.13,6.13,0,0,0,1.56-2.82,8.76,8.76,0,0,0,.28-2.14A7.21,7.21,0,0,0,666.73,219.1Zm-25.41,47.68a3.19,3.19,0,0,1,1,2.17v.11a3.1,3.1,0,0,1-3,3.11,3.11,3.11,0,0,1-3.22-3h0a3.11,3.11,0,0,1,5.23-2.39Zm21-43.64a3.08,3.08,0,0,1-2.16,1h-.12a3.11,3.11,0,0,1-.11-6.21h0a3.11,3.11,0,0,1,3.21,3A3.07,3.07,0,0,1,662.34,223.14Z"/><path class="cls-3" d="M659.64,153.65a6.8,6.8,0,1,0-6.8-6.79A6.8,6.8,0,0,0,659.64,153.65Zm0-10.38a3.59,3.59,0,1,1-3.59,3.59A3.59,3.59,0,0,1,659.64,143.27Z"/><path class="cls-3" d="M382.55,269.28a6.8,6.8,0,1,0,6.8,6.79A6.8,6.8,0,0,0,382.55,269.28Zm0,10.38a3.59,3.59,0,1,1,3.59-3.59A3.59,3.59,0,0,1,382.55,279.66Z"/><path class="cls-3" d="M616.81,260.6,601.64,242l-3.79-4.65-2-2.38-1.21-1.48-.31-.37-.15-.19c-.05-.06-.09-.14-.18-.11H571.61c-.19,0-.46,0-.57,0V214c0-.1,0-.16.11-.22l.19-.2.38-.38,4.1-4.09,4.23-4.23.77-.77L581,204l.1-.1H648.4a5.17,5.17,0,0,0,5,3.77h.19a5.22,5.22,0,0,0-.19-10.44h-.19A5.19,5.19,0,0,0,648.4,201H580.14a1.76,1.76,0,0,0-.23,0l-.51.51L578,202.83l-4.27,4.27-4.41,4.41-.68.67-.34.34-.16.17c-.06.06,0,.16,0,.23v22.74c0,.13.12.06.19.08h24.38c.15,0,.24.25.36.38l.69.83,1.84,2.26,3.79,4.64,15.17,18.57,3.84,4.7a4.45,4.45,0,0,1,.06,1.16v44h2.89V266.51c0-.17,0-.36-.12-.48Zm34.88-59.79a2.34,2.34,0,0,1,1.62-.74h.09a2.33,2.33,0,0,1,1.71,3.92,2.3,2.3,0,0,1-1.63.74h0a2.33,2.33,0,0,1-1.79-3.92Z"/><path class="cls-3" d="M556.41,38.5a6.93,6.93,0,0,0,7,6.71h.26a7.49,7.49,0,0,0,1.17-.16l15.44,16.76,8.58,9.32L591,73.46l.84.91c.22.29.58.53.7.87v62.43c0,.15-.08.25-.16.36l-.26.32-.51.66-2.78,3.55-5.66,7.23-40.25,51.46-19.57,25a7.7,7.7,0,0,1-1.45.05h-106a8.12,8.12,0,0,0-2.57,0V246h3.85V230.39a26.42,26.42,0,0,1,3.65-.22H524.94c.12,0,.23,0,.28-.11l20.69-26.44,40.26-51.46,5.66-7.23,2.88-3.68.9-1.16.46-.58c.14-.19.35-.36.29-.63V73.81c0-.18-.12-.29-.23-.42l-.34-.37-.68-.74-1.32-1.43-2.14-2.33-8.59-9.32L568.28,43.15c.06-.06.13-.1.18-.16A6.14,6.14,0,0,0,570,40.17,9.26,9.26,0,0,0,570.3,38a7.58,7.58,0,0,0-.26-1.71,6.92,6.92,0,0,0-6.67-5h-.26a7,7,0,0,0-6.7,7.21Zm4.68-2.37a3.06,3.06,0,0,1,2.16-1h0a3.12,3.12,0,0,1,3.21,3,3.11,3.11,0,0,1-3,3.23h-.12a3.11,3.11,0,0,1-2.27-5.23Z"/><path class="cls-3" d="M625.83,75.5a7,7,0,0,0-1.45,13.69v60.28c0,.13,0,.27-.09.36l-5.15,6.39-16.38,20.27-4.93,6.11-2.47,3.06c-.11.09.06,0,.12.06H651.2a6.9,6.9,0,0,0,6.66,5h.26a7,7,0,0,0-.25-13.92h-.26a6.9,6.9,0,0,0-6.41,5H605.56c-.71,0-1.56,0-2.16,0l1.4-1.73,2.79-3.46,14.54-18,6-7.36c.21-.16.15-.42.15-.65V89.05a6.91,6.91,0,0,0,2.95-1.85,6,6,0,0,0,1.56-2.81,8.83,8.83,0,0,0,.28-2.14,7.34,7.34,0,0,0-.27-1.72,6.9,6.9,0,0,0-6.66-5Zm29.76,106.17a3.06,3.06,0,0,1,2.16-1h.12a3.11,3.11,0,0,1,.11,6.22h0a3.12,3.12,0,0,1-3.21-3A3.07,3.07,0,0,1,655.59,181.67Zm-26.4-99.32a3.11,3.11,0,0,1-3,3.22h-.12a3.11,3.11,0,0,1-2.27-5.23,3.06,3.06,0,0,1,2.16-1h0A3.12,3.12,0,0,1,629.19,82.35Z"/><path class="cls-3" d="M588,300.92l-1.25-1.2-4.17-4-7.83-7.56-5.86-5.67-.89-.85-.22-.21a1.46,1.46,0,0,0-.3,0H543.68c-.09,0-.15-.14-.22-.2l-.44-.45-2-2.16-2.06-2.17c-.84-.5-.48-1.47-.56-2.28v-29a6.93,6.93,0,0,0,5-6.67v-.25a7,7,0,0,0-13.92.24v.26a6.94,6.94,0,0,0,2.21,4.85,7,7,0,0,0,2.82,1.56v32c0,.09,0,.19,0,.26l.19.2.76.8,2.7,2.84,2.72,2.85.76.8c.14.11.23.32.4.35h24a.49.49,0,0,1,.17,0l.12.12.5.49,5.23,5.05,7.83,7.56,3.65,3.53.71.68c0,.07.15.11.15.19v36c0,.23.07.49-.08.69l-.35.6-.88,1.51-7.81,13.4L573,359l-.83,1.4-.41.71c-.07.11-.13.24-.2.34H540.43c-.14,0-.21.19-.32.28L538.92,363l-4,4.38-1.14,1.23-.57.61c-.15.22-.49.37-.4.69v10.65c.33.28.74.51,1.1.77l2.25,1.53,2.16,1.47a6.79,6.79,0,1,0,6.59-5.21,6.76,6.76,0,0,0-4.65,1.87l-1.7-1.16-1.27-.86a7.55,7.55,0,0,1-.62-.44v-7.22c-.06-.18.14-.27.22-.39l.32-.35.65-.7,3.42-3.7.67-.73c.06-.05.1-.15.18-.15h31.67c.13-.19.25-.41.37-.62l.73-1.24,1.45-2.48,2.28-3.91,7.81-13.4,1.08-1.85.62-1.07a.75.75,0,0,0,.13-.58V301.25C588.22,301.1,588,301,588,300.92Zm-51.42-59.35a3.11,3.11,0,0,1-3.22-3v-.12a3.11,3.11,0,0,1,6.21-.1h0A3.11,3.11,0,0,1,536.54,241.57Zm8.32,140.74a3.59,3.59,0,1,1-3.58,3.58A3.58,3.58,0,0,1,544.86,382.31Z"/><path class="cls-3" d="M588.8,34.76A4.86,4.86,0,1,0,587.33,28,4.83,4.83,0,0,0,588.8,34.76Zm.7-5.33a2.28,2.28,0,0,1,1.93-1.06,2.36,2.36,0,0,1,1.24.36,2.3,2.3,0,0,1,.69,3.17,2.34,2.34,0,0,1-3.17.7A2.29,2.29,0,0,1,589.5,29.43Z"/><path class="cls-3" d="M603.63,278.32l-13.63-17-3.4-4.24-1.89-2.36-1.09-1.35a.27.27,0,0,0-.07-.08h-24c-.32.09-.21-.23-.23-.43V207.15a8.7,8.7,0,0,1,0-1.26l.83-1,4.58-5.36,9.19-10.74L600,158.27l3.29-3.84,1-1.22a3,3,0,0,0,.48-.62V83.16c0-.1.16-.16.24-.24l1.06-.92L612,77l10.29-8.87a5.18,5.18,0,0,0,5.55.11,5.68,5.68,0,0,0,.7-.51l.15-.13a5.22,5.22,0,0,0-7-7.79l-.15.13c-.17.16-.32.33-.47.5a5.16,5.16,0,0,0-.7,5.5l-10.28,8.86-5.86,5.06-1.87,1.61a2.94,2.94,0,0,0-.44.42v69.71a1.73,1.73,0,0,1-.27.35l-.59.69-3.25,3.8-26.13,30.55-9.19,10.74-4.61,5.39-1.47,1.71a14.94,14.94,0,0,0-.07,2.23v48.42c0,.35-.15.91.4.74h24.47a5.06,5.06,0,0,1,1,.05l.61.77,1.52,1.89,3.41,4.25,13.62,17,3.75,4.68a4.27,4.27,0,0,1,.07,1.14v43.5h2.89V284.19c0-.16,0-.35-.12-.47ZM623.55,62l.06-.06a2.33,2.33,0,0,1,3.11,3.48h0A2.33,2.33,0,1,1,623.55,62Z"/><path class="cls-3" d="M588.8,50.06a4.92,4.92,0,0,0,2.63.77,4.87,4.87,0,1,0-2.63-.77Zm.7-5.34a2.3,2.3,0,0,1,3.17-.69,2.29,2.29,0,0,1,.69,3.17,2.35,2.35,0,0,1-3.17.7A2.3,2.3,0,0,1,589.5,44.72Z"/><path class="cls-3" d="M403.12,408.5V365.61a4,4,0,0,1,.07-1.16l4-4.32L418,348.47l2.33-2.52.49-.53c.18-.12.46,0,.69-.06h26.37c2.12.67,2.5-1.69,3.48-3l2.24-3.85.66-1.12.33-.56.16-.29a1.67,1.67,0,0,0,0-.32V312.42c-.91-1-2-2-2.92-2.86l-2.44-2.37-1.5-1.45-.38-.36c-.13-.11-.23-.3-.42-.24H422.82c-.25.07-.34-.2-.5-.33l-.44-.46-.94-1-4.87-5.12L406.32,288l-1-1.05a3.73,3.73,0,0,1-.46-.52v-33c0-.09-.08,0-.13-.06h-68c-.18-.06-.07.17-.1.26v82.26a6,6,0,0,1,0,1.05l-.72.79-3.78,4.11-8,8.7-1.57,1.71-.36.39a2.24,2.24,0,0,1-.52,0H190.48a6.91,6.91,0,0,0-6.66-5h-.26a7,7,0,0,0,.25,13.92h.25a6.87,6.87,0,0,0,6.41-5H323a5.64,5.64,0,0,0,.93,0l.64-.69,2.42-2.64,8-8.7,4.21-4.59,1.27-1.39a10.27,10.27,0,0,0,.07-1.85V257.35c0-.05,0-.18.06-.15h59.69a5,5,0,0,1,.79,0V288a8.85,8.85,0,0,0,.82.92l1.71,1.79,9.75,10.24,4.87,5.12,1.5,1.58.78.82.39.4c.07.06.11.18.21.17h24.56c.19,0,.29.23.45.34l.85.82,2.25,2.18.9.87c.28.28.59.54.83.83V335.3a.39.39,0,0,1-.1.34l-.18.32-.37.64-1.87,3.2c-.56.75-.77,2.09-2,1.71H419.16a.38.38,0,0,0-.11.11l-.86.92-3.06,3.32-10.77,11.66-5,5.37c-.17.1-.12.3-.13.47V408.5a6.8,6.8,0,1,0,3.85,0Zm-217-51.81a3.1,3.1,0,0,1-2.17,1h-.11a3.11,3.11,0,0,1-.11-6.22h0a3.11,3.11,0,0,1,2.39,5.23ZM401.2,418.57a3.59,3.59,0,1,1,3.58-3.59A3.59,3.59,0,0,1,401.2,418.57Z"/><path class="cls-3" d="M414,394V368.84a10.17,10.17,0,0,1,0-1.47l2.29-2.49,7.26-7.85,1.44-1.56.33-.36c.11-.12.2-.27.39-.22h29.42c.21,0,.49.06.65-.06l.35-.59,1.38-2.37,4.5-7.71,2.64-4.54.83-1.4a.54.54,0,0,0,.07-.39V306.51c0-.06,0-.13,0-.17l-.13-.12-.25-.24-.5-.49-6.65-6.43L455,296l-1.8-1.74-1-1-.5-.49c-.22,0-.46,0-.69,0H428.5a5.71,5.71,0,0,1-1.25-.05l-1.86-2-4.82-5.06-4.43-4.66c-.11-.16-.36-.27-.36-.48V241.1c0-.11-.12,0-.17-.06H325.73a4.83,4.83,0,0,0,0,1v89.24a1.18,1.18,0,0,1-.18.21l-.39.43-4,4.39-3.74,4.08H224.83a6.92,6.92,0,0,0-6.67-5h-.25a7,7,0,0,0,.25,13.92h.25a6.9,6.9,0,0,0,4.85-2.21,7,7,0,0,0,1.56-2.82h94.23l4.88-5.33,4.6-5,.69-.75a2.3,2.3,0,0,0,.32-.38V245.43a3,3,0,0,1,0-.53h82c.14,0,.42-.09.34.15v37c-.05.21.15.31.26.45l.39.41,5.21,5.47,4.82,5.07,3,3.11.1.09h24.45l.28.27.57.55,1.33,1.29,3.13,3,5.87,5.67c.16.19.44.34.5.57V336.2a3.92,3.92,0,0,1,0,.91l-.47.8-2.51,4.3-4.15,7.12-.78,1.34-.2.34c-.09.07-.24,0-.37,0H424a.15.15,0,0,0-.18.08l-.29.31-.58.62-2.18,2.37-7.26,7.85-3.28,3.55c-.11.07-.08.19-.08.3v28.06A6.78,6.78,0,1,0,414,394ZM220.43,344.38a3.06,3.06,0,0,1-2.16,1h-.11a3.11,3.11,0,0,1-.11-6.22h0a3.12,3.12,0,0,1,3.22,3A3.07,3.07,0,0,1,220.43,344.38Zm192.06,59.76a3.59,3.59,0,1,1,3.58-3.59A3.59,3.59,0,0,1,412.49,404.14Z"/><path class="cls-3" d="M532.86,46.22a6.94,6.94,0,0,0,7,6.71h.25a7,7,0,0,0,2.45-.55l14.21,15.42,7.69,8.34,1.92,2.09a14.56,14.56,0,0,1,1.33,1.53v46.49a2.73,2.73,0,0,1-.36.5l-.78,1-2.12,2.71-4.25,5.43-33.84,43.25-16.44,21c-.18.47-.68.31-1.08.34H399.4a6.92,6.92,0,0,0-6.67-5h-.25a6.9,6.9,0,0,0-4.85,2.21,7,7,0,0,0,5.1,11.7H393a6.87,6.87,0,0,0,6.41-5H510.05c.71-.05,1.58.24,1.91-.59l17.4-22.24,33.84-43.25,4.24-5.42,2.12-2.71,1.34-1.71a5,5,0,0,0,.62-.88V78.32c0-.17-.1-.26-.2-.38l-.31-.33-.61-.67-1.23-1.33-1.92-2.09-7.69-8.34-14-15.24a5.65,5.65,0,0,0,1-2,8.76,8.76,0,0,0,.28-2.14,7.21,7.21,0,0,0-.27-1.71,6.91,6.91,0,0,0-6.66-5h-.26a6.9,6.9,0,0,0-4.85,2.21A7,7,0,0,0,532.86,46.22ZM395,204.52a3.1,3.1,0,0,1-2.17,1h-.11a3.1,3.1,0,0,1-3.11-3,3.13,3.13,0,0,1,.83-2.23,3.19,3.19,0,0,1,2.17-1h0a3.11,3.11,0,0,1,2.39,5.23ZM537.54,43.85a3.1,3.1,0,0,1,2.17-1h0a3.11,3.11,0,1,1,.22,6.21h-.11a3.1,3.1,0,0,1-2.28-5.22Z"/><path class="cls-3" d="M603.35,50.06a4.86,4.86,0,1,0-1.47-6.72A4.89,4.89,0,0,0,603.35,50.06Zm.69-5.34a2.3,2.3,0,0,1,1.94-1,2.24,2.24,0,0,1,1.23.36,2.3,2.3,0,0,1,.7,3.17,2.35,2.35,0,0,1-3.17.7A2.31,2.31,0,0,1,604,44.72Z"/><path class="cls-3" d="M548.6,23.36v15.9c0,1.16,0,2.49.06,3.67l2.48,2.69,17.17,18.65,8.59,9.32,1.65,1.79c0,.37,0,.76,0,1.14v53.25c0,.11,0,.25,0,.34l-.23.29-.44.57-9.77,12.49-37.05,47.35-9.26,11.84-4.63,5.92L515.29,211l-.21.26c-.07.09-.13.21-.26.18H427.49a6.93,6.93,0,0,0-6.67-5h-.25a7,7,0,0,0,.25,13.91h.25a6.87,6.87,0,0,0,6.41-5h89.13c.23.07.32-.16.45-.31l.37-.47,2.76-3.53,4.63-5.92,9.26-11.84,37-47.35,10-12.83.79-1,.39-.5a.36.36,0,0,0,.09-.3V75.87c0-.67,0-1.36,0-2L579.75,71l-8.58-9.32L554,43l-1.48-1.61c-.07-.7,0-1.36,0-2.14v-16a6.92,6.92,0,0,0,3-1.89,6.15,6.15,0,0,0,1.57-2.81,9.33,9.33,0,0,0,.27-2.14,7.21,7.21,0,0,0-.27-1.71,6.91,6.91,0,0,0-6.66-5h-.26a6.94,6.94,0,0,0-1.55,13.65ZM423.09,215.44a3.06,3.06,0,0,1-2.16,1h-.11a3.11,3.11,0,0,1-2.28-5.23,3.14,3.14,0,0,1,2.16-1h0a3.12,3.12,0,0,1,3.21,3A3,3,0,0,1,423.09,215.44Zm125-200.89a3.06,3.06,0,0,1,2.16-1h0a3.11,3.11,0,0,1,3.21,3,3.11,3.11,0,0,1-3,3.22h-.12a3.1,3.1,0,0,1-2.27-5.22Z"/><path class="cls-3" d="M639.2,132.5a6.8,6.8,0,1,0-6.8-6.8A6.8,6.8,0,0,0,639.2,132.5Zm0-10.38a3.59,3.59,0,1,1-3.59,3.58A3.59,3.59,0,0,1,639.2,122.12Z"/><path class="cls-3" d="M639.2,140.06a6.8,6.8,0,1,0,6.79,6.8A6.81,6.81,0,0,0,639.2,140.06Zm0,10.38a3.59,3.59,0,1,1,3.58-3.58A3.59,3.59,0,0,1,639.2,150.44Z"/><path class="cls-3" d="M383.61,197.78h-142c-.24.08-.4.36-.61.53l-2.28,2.27-7.32,7.32-7.75,7.76c-.2.2-.4.39-.58.59v41c-.09.28.24.14.39.17h72a6.93,6.93,0,0,0,6.67,5h.26a7,7,0,0,0-.25-13.91h-.26a6.9,6.9,0,0,0-6.41,5H227.18c-.08,0-.27.06-.22-.1V217.84l.33-.33,6.88-6.88,7.32-7.32,1.38-1.38c.11-.1.2-.25.34-.3H386.49c.75,0,1.52,0,2.25,0V148.2a5.38,5.38,0,0,0-.92,0H304.73c-.59.19-.36-.45-.41-.81V104.8c0-.15.11-.11.21-.11h45.92a6.92,6.92,0,0,0,6.67,5h.26a6.91,6.91,0,0,0,4.84-2.22,6.15,6.15,0,0,0,1.57-2.81,9.41,9.41,0,0,0,.27-2.14,7.34,7.34,0,0,0-.27-1.72,6.9,6.9,0,0,0-6.66-5h-.26A6.91,6.91,0,0,0,352,98a6.75,6.75,0,0,0-1.56,2.81H300.83c-.18,0-.44-.06-.36.2v49.54c.08.64-.33,1.77.72,1.45h83.18a2.9,2.9,0,0,1,.52,0v45.73ZM299.9,253.37a3.06,3.06,0,0,1,2.16-1h.12a3.11,3.11,0,0,1,.11,6.21h0a3.11,3.11,0,0,1-3.21-3A3.07,3.07,0,0,1,299.9,253.37Zm55-152.73a3.06,3.06,0,0,1,2.16-1h0a3.12,3.12,0,0,1,3.21,3,3.11,3.11,0,0,1-3,3.22h-.12a3.11,3.11,0,0,1-2.27-5.23Z"/><path class="cls-3" d="M126.88,63.63h.06a6.83,6.83,0,1,0-.06,0Zm-2.56-9.31a3.59,3.59,0,1,1,2.59,6.1l0,1.6v-1.6a3.6,3.6,0,0,1-3.59-3.55A3.57,3.57,0,0,1,124.32,54.32Z"/><path class="cls-3" d="M116.67,107.53h-.26a7,7,0,0,0,.25,13.92h.26a6.87,6.87,0,0,0,6.41-5h16.88l.29-.28.57-.58,4-4,14.38-14.37,6.82-6.82c.24-.14.17-.41.18-.64V31.36a6.92,6.92,0,0,0,3.18-1.93,6.12,6.12,0,0,0,1.56-2.82,8.69,8.69,0,0,0,.28-2.14,7.21,7.21,0,0,0-.27-1.71,6.9,6.9,0,0,0-6.66-5h-.26a6.95,6.95,0,0,0-1.69,13.62v57c0,.14,0,.29-.1.37l-5.77,5.77-14.37,14.37-3.21,3.21-.33.33a1.14,1.14,0,0,1-.16.15H123.34A6.92,6.92,0,0,0,116.67,107.53Zm2.28,9.08a3.1,3.1,0,0,1-2.17,1h-.12a3.11,3.11,0,0,1-.1-6.22h0a3.12,3.12,0,0,1,2.39,5.23ZM161.39,24.8a3.11,3.11,0,0,1,3-3.22h0a3.11,3.11,0,0,1,2.39,5.23,3.87,3.87,0,0,1-.59.48h-3.4A3.12,3.12,0,0,1,161.39,24.8Z"/><path class="cls-3" d="M149.21,141.06c.21,0,.32-.28.49-.4l.93-.93,1.74-1.74,23.39-23.4,7.56-7.55,3.77-3.78,2-2,1.21-1.21.6-.6.3-.3c.1-.1,0-.27.05-.41V26.23c0-.21-.13-.64.24-.52h57.16c.49-.41.94-.92,1.41-1.38l2.47-2.46,1.81-1.81a6.86,6.86,0,0,0,2.94.68h.25a6.91,6.91,0,0,0,4.85-2.22,6.23,6.23,0,0,0,1.56-2.81,8.76,8.76,0,0,0,.28-2.14,7.21,7.21,0,0,0-.27-1.71,6.91,6.91,0,0,0-6.66-5H257A6.86,6.86,0,0,0,252.18,9a6.9,6.9,0,0,0-.76,8.49l-1.63,1.63-1.92,1.93c-.27.25-.52.54-.81.77H187.39V97.32c0,.08,0,.17,0,.23l-.17.17-.34.34-.69.69-1.79,1.79-3.78,3.78L173,111.87l-23.39,23.39-1.19,1.19-.53.53c-.09.07-.16.21-.28.22H91.94V91.52c0-.09,0-.21.1-.17h31.43a6.9,6.9,0,0,0,6.66,5h.26a7,7,0,0,0-.25-13.92h-.26a6.89,6.89,0,0,0-6.41,5H88.27s-.21-.06-.18,0v53.51ZM255,11.66a3.1,3.1,0,0,1,2.17-1h0a3.11,3.11,0,0,1,.23,6.21h-.12a3.11,3.11,0,0,1-1.19-.23L254.41,15a3.28,3.28,0,0,1-.25-1.09A3.14,3.14,0,0,1,255,11.66ZM127.86,87.3a3.1,3.1,0,0,1,2.16-1h.12a3.11,3.11,0,0,1,2.27,5.23,3.06,3.06,0,0,1-2.16,1h0a3.12,3.12,0,0,1-3.21-3A3.08,3.08,0,0,1,127.86,87.3Z"/><path class="cls-3" d="M260.93,88.66a6.23,6.23,0,0,0,1.56-2.81,8.76,8.76,0,0,0,.28-2.14A7.21,7.21,0,0,0,262.5,82a6.93,6.93,0,0,0-6.67-5h-.26a6.94,6.94,0,0,0-1.76,13.59v45.12a.72.72,0,0,0,.1.52l3.83,6.4,8.32,13.87.39.64a6.91,6.91,0,0,0-.89,8.31l.13.22a7,7,0,0,0,11.81-7.37l-.13-.22a6.9,6.9,0,0,0-7.61-2.91l-.4-.65-8.31-13.87-3.33-5.55a5.76,5.76,0,0,1-.06-1.25V90.62A6.83,6.83,0,0,0,260.93,88.66Zm8.91,70.58a3.1,3.1,0,0,1,4.3.91l.06.1a3.11,3.11,0,0,1-5.28,3.29h0A3.13,3.13,0,0,1,269.84,159.24ZM256.62,86.92h-1.57a3.1,3.1,0,0,1,.66-6.1h0a3.11,3.11,0,0,1,3.21,3A3.07,3.07,0,0,1,258.1,86,2.93,2.93,0,0,1,256.62,86.92Z"/><path class="cls-3" d="M369.85,431.11h.1a6.8,6.8,0,0,0,.1-13.59h0a6.84,6.84,0,0,0-6.89,6.7,6.8,6.8,0,0,0,6.69,6.89Zm.1-10.38a3.59,3.59,0,1,1,0,7.17v1.6l-.05-1.6a3.59,3.59,0,0,1-3.53-3.64A3.59,3.59,0,0,1,370,420.73Z"/><path class="cls-3" d="M147.32,63.45h.06a6.79,6.79,0,0,0,6.73-6.85,6.8,6.8,0,1,0-6.79,6.85Zm-2.56-9.31a3.59,3.59,0,0,1,6.14,2.49,3.57,3.57,0,0,1-3.55,3.61l0,1.61V60.24a3.59,3.59,0,0,1-2.56-6.1Z"/><path class="cls-3" d="M348.7,430.8h.1a6.8,6.8,0,0,0,.1-13.59h0a6.85,6.85,0,0,0-6.89,6.7,6.8,6.8,0,0,0,6.69,6.89Zm.1-10.38a3.59,3.59,0,1,1,0,7.17v1.61l-.05-1.61a3.54,3.54,0,0,1-2.52-1.09,3.48,3.48,0,0,1-1-2.54A3.59,3.59,0,0,1,348.8,420.42Z"/><path class="cls-3" d="M263.52,400.4v-88c0-.34.09-.72-.26-.92L253.83,302l-13.59-13.59-.53-.53-.27-.27c-.08-.1-.23,0-.35-.05H180.32c-1.09,0-2.2,0-3.26,0V159.46c0-.13-.07-.31.07-.39l.3-.3.6-.6,1.6-1.6,3.3-3.31,26.45-26.44L215.2,121l1.71-1.71.47-.46c.14-.16.38-.28.31-.53v-60s0-.17.05-.14h58.41a5.18,5.18,0,0,0,5,3.78h.2a5.22,5.22,0,0,0-.19-10.43H281a5.19,5.19,0,0,0-3.64,1.66,5.37,5.37,0,0,0-1.17,2.11H214.9c-.16,0-.08.15-.1.24v61.65c0,.14-.1.21-.18.3l-.26.26-1.2,1.2-5.82,5.82-26.45,26.45-3.31,3.31-1.7,1.7-1.06,1.06-.53.53a.74.74,0,0,0-.12.13v132.5c1.86.06,3.84,0,5.75,0H238c.16,0,.26.07.36.18l.3.3,13.1,13.11,8.7,8.7c.2.11.14.33.15.52v87.36a4.86,4.86,0,1,0,2.89-.25ZM279.44,55.16a2.28,2.28,0,0,1,1.62-.74h.09a2.34,2.34,0,0,1,.08,4.67h0a2.34,2.34,0,0,1-1.79-3.92Zm-17,352.28a2.3,2.3,0,1,1,2.3-2.29A2.3,2.3,0,0,1,262.47,407.44Z"/><path class="cls-3" d="M204.18,339h.25a6.9,6.9,0,0,0,4.85-2.21,7,7,0,0,0-5.1-11.7h-.25a6.87,6.87,0,0,0-6.41,5H146.85s-.13,0-.12,0V150.39c.1-.35-.24-.25-.47-.26H141.2l-5.25,0L117.82,150l-36.25-.12v1.9a7.67,7.67,0,0,0-.27-1.69,6.92,6.92,0,0,0-6.67-5h-.25A7,7,0,0,0,74.63,159h.25a6.9,6.9,0,0,0,4.85-2.21A6.26,6.26,0,0,0,81.29,154a9.07,9.07,0,0,0,.28-2.11v1.9l36.25.12,18.12.06,3.81,0h2.87c.13,0,.32-.05.27.14V333.87c0,.09.14,0,.21,0h54.42A6.91,6.91,0,0,0,204.18,339Zm-2.28-9.08a3.1,3.1,0,0,1,2.17-1h.11a3.1,3.1,0,0,1,3.11,3,3.09,3.09,0,0,1-3,3.22h0a3.11,3.11,0,0,1-2.39-5.22Zm-125-175.7a3.14,3.14,0,0,1-2.17,1h-.11a3.11,3.11,0,0,1-.11-6.22h0a3.11,3.11,0,0,1,2.39,5.23Z"/><path class="cls-3" d="M250.19,429.28l0-61v-46c0-.41.11-.87-.31-1.11L238.6,309.85l-5.06-5.06-.79-.79-.39-.39-.2-.2a1.18,1.18,0,0,0-.27,0H166.5c-.27,0-.69.11-.57-.3V152.67c0-.07.12-.12.17-.19l.35-.34.74-.75,3.87-3.87,31-31,3-3,1.7-1.7.95-1c.12-.07.08-.19.09-.31V47.77c0-.11,0-.32.05-.36H283.1a5.18,5.18,0,0,0,5,3.78h.2a5.22,5.22,0,0,0-.19-10.44h-.19a5.19,5.19,0,0,0-3.64,1.66,5.3,5.3,0,0,0-1.17,2.11H204.87v64.41a2.25,2.25,0,0,1-.05.74l-.54.55-1.3,1.3-3,3-31,31-3.87,3.87-1.19,1.2-.62.61c-.09.11-.23.2-.28.32V306.13s0,.16,0,.15H230.8s.11,0,.16,0l.33.34.45.44,4.82,4.83,10.61,10.61c.24.13.17.4.18.63v14.11l0,31,0,61a4.85,4.85,0,0,0,.41,9.38,4.55,4.55,0,0,0,1,.12,4.85,4.85,0,0,0,1.44-9.49Zm36.2-384.9a2.33,2.33,0,0,1,1.62-.75h.09a2.34,2.34,0,0,1,.08,4.67h0a2.34,2.34,0,0,1-1.79-3.92Zm-35.4,390a2.32,2.32,0,0,1-2.73,1.75,2.3,2.3,0,0,1,.48-4.54,2.73,2.73,0,0,1,.5,0A2.31,2.31,0,0,1,251,434.39Z"/><path class="cls-3" d="M82.74,222.12A4.87,4.87,0,1,0,87.61,227,4.87,4.87,0,0,0,82.74,222.12Zm0,7.16A2.3,2.3,0,1,1,85,227,2.3,2.3,0,0,1,82.74,229.28Z"/><path class="cls-3" d="M218.38,345.28H185a6.92,6.92,0,0,0-6.67-5h-.25a7,7,0,0,0,.25,13.92h.25a6.86,6.86,0,0,0,6.41-5h29.6c.07.05,0,.22,0,.33v24.47c-.36.43-.8.82-1.2,1.23l-3.25,3.26-5.4,5.39a6.88,6.88,0,0,0-3.85-1.19h-.26a7,7,0,0,0,.25,13.92h.26a6.94,6.94,0,0,0,4.84-2.21,6.22,6.22,0,0,0,1.56-2.82,8.76,8.76,0,0,0,.28-2.14,7.21,7.21,0,0,0-.27-1.71,5.86,5.86,0,0,0-.33-.88l5.65-5.64,3.47-3.47c.69-.73,1.48-1.41,2.1-2.17V345.38C218.45,345.32,218.45,345.26,218.38,345.28Zm-37.8,4.05a3.1,3.1,0,0,1-2.17,1h-.11a3.11,3.11,0,0,1-.11-6.22h0a3.11,3.11,0,0,1,2.39,5.23Zm22.59,42.37a3.1,3.1,0,0,1-2.17,1h-.11a3.08,3.08,0,0,1-3.1-3,3,3,0,0,1,.83-2.23,3.06,3.06,0,0,1,2.16-1h0a3.11,3.11,0,0,1,2.39,5.22Z"/><path class="cls-3" d="M242.81,330.91l-2-2-6.71-6.7-4.68-4.67-2.61-2.62c-.26-.22-.47-.56-.77-.68h-67.8a8.29,8.29,0,0,1,0-.87V147.82a3.44,3.44,0,0,1,.37-.4l.78-.78,34.15-34.15,3-2.95.91-.91.45-.45c.11-.07.07-.19.08-.29V39.51c0-.07,0-.16,0-.21h65.44c1.23.36,1.71-.87,2.42-1.62L275,26.54a5.2,5.2,0,0,0,6.1-1.46l.12-.15a5.19,5.19,0,0,0,1-2.64,5,5,0,0,0,0-1.22,5.21,5.21,0,0,0-9.2-2.63l-.12.15a5.13,5.13,0,0,0-.14,6.11l-8.89,10.79c-.4.43-.67,1.13-1.37.92H195.06c-.05.08,0,.25,0,.37V106.6c0,.11,0,.26,0,.34l-.25.26-.52.52-2.73,2.73L157.34,144.6,156,146a6,6,0,0,0-.65.69v169c0,.51,0,1.08,0,1.54h69.51c.17.07.29.26.44.38l2.06,2.07,4.67,4.67,6.71,6.71,1.36,1.36c.09.1.23.18.27.31v64.79c-.44.42-1,.78-1.49,1.17l-4.19,3.16-6.33,4.78a4.8,4.8,0,0,0-2-1,4.68,4.68,0,0,0-1.05-.11,4.86,4.86,0,0,0-1,9.61,4.63,4.63,0,0,0,1.05.12,4.9,4.9,0,0,0,4.75-3.83A5,5,0,0,0,230,409l6.48-4.89,4.21-3.18c.86-.68,1.85-1.32,2.62-2.05V331.47C243.23,331.25,243,331.1,242.81,330.91ZM275.18,20.34l.06-.07a2.33,2.33,0,0,1,4.11,1.18,2.3,2.3,0,0,1-.46,1.72h0a2.34,2.34,0,0,1-3.71-2.84ZM227.57,410.77a2.34,2.34,0,0,1-2.74,1.75,2.29,2.29,0,0,1,.49-4.53,2.12,2.12,0,0,1,.5.05,2.3,2.3,0,0,1,.67.27l1,1.39A2.14,2.14,0,0,1,227.57,410.77Z"/><path class="cls-3" d="M82.74,205a4.87,4.87,0,1,0,4.87,4.87A4.87,4.87,0,0,0,82.74,205Zm0,7.16a2.3,2.3,0,1,1,2.3-2.29A2.3,2.3,0,0,1,82.74,212.2Z"/><path class="cls-3" d="M98.81,211.7l4.29-4.28,4.9-4.91,2.81-2.8c.1-.15.33-.23.32-.42v-4.18a5.19,5.19,0,0,0,3.78-5v-.19a5.22,5.22,0,0,0-10.44.19v.19a5.19,5.19,0,0,0,1.66,3.63,5.13,5.13,0,0,0,2.11,1.17v3c0,.11-.13.16-.18.24l-2.1,2.1-4.9,4.91L96,210.45c-.18.1-.12.3-.13.47v44.42a4.87,4.87,0,1,0,2.89,0V212C98.74,211.87,98.71,211.76,98.81,211.7Zm9.29-19.88a2.35,2.35,0,0,1-.75-1.63v-.08a2.32,2.32,0,0,1,2.25-2.33,2.29,2.29,0,0,1,1.67.62A2.33,2.33,0,0,1,112,190h0a2.34,2.34,0,0,1-3.92,1.79ZM99.59,260a2.3,2.3,0,1,1-2.3-2.29A2.3,2.3,0,0,1,99.59,260Z"/><path class="cls-3" d="M128.75,169.38s0-.13,0-.14H96.49c-.1,0-.16.07-.23.13l-.21.21-.41.41-.82.83-1.52,1.51-5.17,5.17L80,185.67a6.8,6.8,0,0,0-3.18-.78h-.26a7,7,0,0,0,.25,13.92H77a6.9,6.9,0,0,0,4.85-2.21,6.21,6.21,0,0,0,1.56-2.82,8.69,8.69,0,0,0,.28-2.14,7.21,7.21,0,0,0-.27-1.71,6.79,6.79,0,0,0-.7-1.58l8.12-8.12L96,175.05,97.09,174a8.07,8.07,0,0,1,1-.9h26.74c.07,0,.14,0,.11.08v33.15c0,.65,0,1.32,0,2l-1.39,1.39-7.65,7.65-2,2-1.17,1.18a6.33,6.33,0,0,0-.57.59v61.61a6.92,6.92,0,0,0-5,6.67v.25a6.9,6.9,0,0,0,2.21,4.85,7,7,0,0,0,11.71-5.1v-.25a6.94,6.94,0,0,0-2.21-4.85,7,7,0,0,0-2.82-1.56v-60c.09-.12.22-.22.32-.33l.67-.67,1.65-1.65,7.7-7.7,2.45-2.45c.1-1.11,0-2.3.05-3.45ZM79.05,194a3.19,3.19,0,0,1-2.17,1h-.11a3.11,3.11,0,0,1-.11-6.22h0A3.11,3.11,0,0,1,79.05,194Zm37.05,93.14a3.1,3.1,0,0,1,1,2.17v.11a3.11,3.11,0,0,1-6.22.11h0a3.11,3.11,0,0,1,5.22-2.39Z"/><path class="cls-3" d="M494.85,345.29H458.1c-.22.19-.42.41-.62.61l-4.29,4.29-7.71,7.7-11.56,11.57-2.44,2.44-.26.25c-.1.06-.24,0-.35,0H317.21c-.13,0-.19.08-.27.16l-.24.23-.47.48-1,.94-1.66,1.66-5.94,5.94L297,392.28a6.86,6.86,0,0,0-3.64-1.06h-.26a7,7,0,0,0,.25,13.92h.25a6.91,6.91,0,0,0,4.85-2.22,6.23,6.23,0,0,0,1.56-2.81,8.76,8.76,0,0,0,.28-2.14,7,7,0,0,0-.7-2.83l10.84-10.84,5.93-5.94,1.32-1.31a9.43,9.43,0,0,1,1.09-1H432.21c.21,0,.46.05.63-.06l.46-.46,3.35-3.34,11.56-11.56,7.71-7.71,3.42-3.42.35-.35H491v64.4c0,.16-.16.23-.24.34l-1.23,1.23-27.25,27.25-3,3a6.91,6.91,0,0,0-8.28,1.15l-.18.18a7,7,0,0,0,10,9.67l.18-.19a6.86,6.86,0,0,0,1-8.09l3-3,27.25-27.26,2.17-2.17.27-.27.14-.14c0-.05,0-.12,0-.19Zm-199.24,55a3.1,3.1,0,0,1-2.17,1h-.11a3.11,3.11,0,0,1-.11-6.21h0a3.11,3.11,0,0,1,2.39,5.22Zm162.58,53.27-.08.09a3.09,3.09,0,0,1-4.31.07,3.1,3.1,0,0,1-.16-4.39h0a3.11,3.11,0,0,1,4.39-.15,3.1,3.1,0,0,1,.16,4.39Z"/><path class="cls-3" d="M407.81,147.2l-.18-.18A7,7,0,0,0,398,157l.19.17a6.88,6.88,0,0,0,8.09,1l.54.54L432,183.9l5.52,5.53c.11.18.32.13.51.14h48.29a6.91,6.91,0,0,0,6.67,5h.25a7,7,0,0,0,4.85-2.22,6.23,6.23,0,0,0,1.56-2.81,8.83,8.83,0,0,0,.28-2.14,7.21,7.21,0,0,0-.27-1.71,6.92,6.92,0,0,0-6.67-5h-.25a6.86,6.86,0,0,0-6.41,5H439.42c-.11,0-.23,0-.29-.08l-4.45-4.46L409.5,156l-.53-.53A6.92,6.92,0,0,0,407.81,147.2Zm-2.64,7a3.1,3.1,0,0,1-2.17,1,3,3,0,0,1-2.23-.83l-.08-.08a3.11,3.11,0,0,1,4.32-4.47h0A3.12,3.12,0,0,1,405.17,154.23Zm85.49,31.29a3.1,3.1,0,0,1,2.17-1h0a3.11,3.11,0,0,1,2.39,5.23,3.1,3.1,0,0,1-2.17,1h-.11a3.11,3.11,0,0,1-2.28-5.23Z"/><path class="cls-3" d="M473.77,303.48a6.8,6.8,0,1,0-6.79-6.8A6.81,6.81,0,0,0,473.77,303.48Zm0-10.39a3.59,3.59,0,1,1-3.58,3.59A3.59,3.59,0,0,1,473.77,293.09Z"/><path class="cls-3" d="M379,237.18a6.67,6.67,0,0,1,2.66-.53,6.5,6.5,0,0,1,1.19.11V213.69c0-.05-140.41-.17-140.41-.17a6.93,6.93,0,0,0-6.67-5h-.25a7,7,0,0,0,.24,13.92H236a6.9,6.9,0,0,0,4.85-2.21,6.31,6.31,0,0,0,1.56-2.82H379s0,.07,0,.1ZM238,217.56a3.06,3.06,0,0,1-2.16,1h-.12a3.11,3.11,0,0,1-.11-6.21h0a3.11,3.11,0,0,1,3.21,3A3.07,3.07,0,0,1,238,217.56Z"/><path class="cls-3" d="M487.63,15.31a4.84,4.84,0,0,0,4.62-3.42h35.82a3.64,3.64,0,0,1,1,.06l3.75,3.52,1.69,1.58c.68.35.42,1.11.47,1.74v12.5a1.2,1.2,0,0,1,0,.38l-.3.28-5.79,5.45-.19.18a.22.22,0,0,1-.22.1H509.31s0,.06,0,.09v76.3a5.2,5.2,0,0,0-3.78,5v.19a5.22,5.22,0,0,0,10.44-.18v-.19a5.14,5.14,0,0,0-3.77-4.81V40.62c0-.11.13,0,.18,0h17.15c.08,0,.16,0,.22,0l.17-.16.33-.31,7.07-6.66.52-.48a2.54,2.54,0,0,0,0-.68V18.53c-.09-1.1.37-2.45-.83-3.07l-2.24-2.1-4.53-4.25c-.1-.15-.26-.1-.41-.11H492.25a4.85,4.85,0,1,0-4.62,6.31Zm24.7,102.06a2.33,2.33,0,0,1,.75,1.62v.09a2.33,2.33,0,0,1-2.25,2.33,2.3,2.3,0,0,1-1.67-.63,2.33,2.33,0,0,1-.75-1.62h0a2.35,2.35,0,0,1,2.25-2.42A2.3,2.3,0,0,1,512.33,117.37ZM487.63,8.15a2.3,2.3,0,1,1-2.29,2.3A2.3,2.3,0,0,1,487.63,8.15Z"/><path class="cls-3" d="M473.77,325.74A6.8,6.8,0,1,0,467,319,6.8,6.8,0,0,0,473.77,325.74Zm0-10.37a3.58,3.58,0,1,1-3.58,3.58A3.58,3.58,0,0,1,473.77,315.37Z"/><path class="cls-3" d="M474.42,48.21c0-.16.07-.43-.18-.35H425.3c-.06,0-.07.12-.11.17l-.75,1.55-1.51,3.1-2.39,4.89-4.73,9.71L396.89,106.1l-4.54,9.32c0,.23-.25.16-.42.17h-74.8a6.93,6.93,0,0,0-6.67-5h-.26a7,7,0,0,0,.25,13.92h.26a6.86,6.86,0,0,0,4.84-2.21,6.24,6.24,0,0,0,1.57-2.82h77c.3,0,.68.1.74-.29l5.53-11.36L419.28,69l4.73-9.7,2.34-4.82.86-1.75.43-.88s0-.09.06-.1h42.76c.15,0,.09.11.1.2v92.6c0,.18.1.52-.2.42H441V99.62A6.91,6.91,0,0,0,446,93V92.7a7,7,0,0,0-13.92.25v.25a6.9,6.9,0,0,0,2.21,4.85,7,7,0,0,0,2.82,1.56v49a.56.56,0,0,0,0,.13h36.93c.53.17.3-.43.36-.75Zm-161.2,70.7a3.16,3.16,0,0,1-.49.72,3.06,3.06,0,0,1-2.16,1h-.12a3.11,3.11,0,0,1-.11-6.21h0a3.17,3.17,0,0,1,2.87,1.7ZM436.94,95.23a3.1,3.1,0,0,1-1-2.17V93a3.1,3.1,0,0,1,5.23-2.27,3.06,3.06,0,0,1,1,2.16h0a3.11,3.11,0,0,1-5.22,2.39Z"/><path class="cls-3" d="M362.12,282.87a6.8,6.8,0,1,0-6.8-6.8A6.8,6.8,0,0,0,362.12,282.87Zm0-10.38a3.59,3.59,0,1,1-3.59,3.58A3.58,3.58,0,0,1,362.12,272.49Z"/><path class="cls-3" d="M537.78,128.37l-23.24,29.44-11.47,14.53L502,173.67a9.06,9.06,0,0,1-1.66.06h-56.7c-.06,0-.14,0-.19,0l-.14-.14-.55-.55-16.49-16.48-2.13-2.14a6.9,6.9,0,0,0-1.15-8.27l-.19-.18a6.88,6.88,0,0,0-5-1.86A7,7,0,0,0,413.16,156l.18.18a6.86,6.86,0,0,0,8.09,1l2.14,2.14,12.2,12.2,3.05,3,1.82,1.82,1,1,.24.24c.09.07.22,0,.33,0h61.42c.13,0,.26,0,.32-.11l1.85-2.35,11.78-14.92,23.24-29.44,4.45-5.65c.16-.12.11-.31.12-.48V81a6.74,6.74,0,0,0,3.18-1.93,6,6,0,0,0,1.56-2.81,8.76,8.76,0,0,0,.28-2.14,7.46,7.46,0,0,0-.26-1.71,6.93,6.93,0,0,0-6.67-5h-.26A6.94,6.94,0,0,0,541.52,81v41.56a4.45,4.45,0,0,1-.07,1.16ZM420.36,153.16a3.14,3.14,0,0,1-2.17,1,3.08,3.08,0,0,1-2.22-.83l-.09-.09a3.11,3.11,0,0,1,4.32-4.47h0A3.12,3.12,0,0,1,420.36,153.16Zm120-78.71a3.11,3.11,0,0,1,3-3.22h0a3.11,3.11,0,0,1,3.21,3,3.11,3.11,0,0,1-3,3.22h-.12A3.09,3.09,0,0,1,540.35,74.45Z"/><path class="cls-3" d="M389.78,90.9a5.21,5.21,0,0,0,7-1.86l.1-.16a5.16,5.16,0,0,0-.75-6.07l24.6-40.67,3.35-5.54c0-.13.16-.09.27-.1h1l1.46,0,3.61-.06,14.45-.24,26.45-.43a4.87,4.87,0,1,0,0-2.89l-26.48.44-14.45.23-3.61.06-2.15,0-1.15,0h-.58c-.19,0-.42-.05-.47.19l-4.13,6.82L393.68,81.31a5.18,5.18,0,0,0-5.82,2.32l-.1.17a5.22,5.22,0,0,0,2,7.1ZM475.92,32a2.3,2.3,0,1,1-2.19,3l0-1.26A2.31,2.31,0,0,1,475.92,32ZM390.28,85.2h0a2.33,2.33,0,1,1,4.07,2.27l0,.08a2.32,2.32,0,0,1-3.13.82A2.27,2.27,0,0,1,390.08,87,2.35,2.35,0,0,1,390.28,85.2Z"/><path class="cls-3" d="M451.44,440.16l20.05-20.06,5-5,2.51-2.51,1.38-1.38.8-.8c.22-.28.68-.47.56-.9V358.33H460a15.3,15.3,0,0,0-1.17,1.12l-2,2-3.63,3.64-11.32,11.31-5.66,5.66-1.16,1.16c-.18.14-.31.4-.53.45H323.25c-.31-.09-.47.19-.67.37l-.58.58-1.12,1.13-1.82,1.82-3.64,3.63-14.56,14.56L273,433.63a4.79,4.79,0,0,0-1.86-.37,4.87,4.87,0,1,0,4.86,4.86,4.8,4.8,0,0,0-.78-2.62l27.71-27.71,14.55-14.55,3.64-3.64,1.82-1.82.69-.69.33-.33c.12-.11.21-.26.38-.21H435.8l.11-.12.23-.22.45-.46,1.67-1.66,5.65-5.66,11.32-11.31,3.63-3.63,1.63-1.64a7.84,7.84,0,0,1,.67-.63h17.7v47.23c.07.24-.19.35-.31.51l-.46.46L477,410.54l-2.51,2.51-5,5-20.06,20.05-17,17.05a5.2,5.2,0,0,0-6.21.86l-.13.14a5.22,5.22,0,0,0,7.51,7.25l.13-.13a5.21,5.21,0,0,0,1.4-3.75,5.07,5.07,0,0,0-.67-2.32Zm-180.32.26a2.3,2.3,0,1,1,2.29-2.3A2.3,2.3,0,0,1,271.12,440.42Zm160.42,20.89-.06.06a2.33,2.33,0,0,1-4-1.56,2.35,2.35,0,0,1,.62-1.68h0a2.34,2.34,0,0,1,3.29-.12,2.3,2.3,0,0,1,.74,1.63A2.35,2.35,0,0,1,431.54,461.31Z"/><path class="cls-3" d="M392.12,431.44h.1a6.8,6.8,0,0,0,.1-13.6h0a6.8,6.8,0,1,0-.2,13.6Zm.09-10.38a3.59,3.59,0,1,1,0,7.17v1.6l-.05-1.6a3.59,3.59,0,0,1,0-7.17Z"/><path class="cls-3" d="M350.24,82.21a4.89,4.89,0,0,0,2.62.77,4.82,4.82,0,0,0,2.71-.83L379.81,99.3a4.86,4.86,0,0,0,4.41,6.86,4.87,4.87,0,1,0-3-8.72l.12-.17L357.24,80.18a4.85,4.85,0,1,0-7,2Zm32.05,17.85A2.31,2.31,0,0,1,384.23,99a2.36,2.36,0,0,1,1.24.36,2.31,2.31,0,0,1,.69,3.17,2.34,2.34,0,0,1-3.17.7,2.31,2.31,0,0,1-.7-3.17ZM350.93,76.87a2.29,2.29,0,0,1,4.15,1.78l0,0-1,1.43a2.36,2.36,0,0,1-2.42,0,2.31,2.31,0,0,1-.69-3.18Z"/><path class="cls-3" d="M329.32,76.08l-.56.57a6.17,6.17,0,0,1-.53.5l-1.54.24L303.76,81l-.56.09a5.19,5.19,0,0,0-5.53-3l-.18,0a5.22,5.22,0,0,0,1.79,10.29l.19,0a5.17,5.17,0,0,0,4.17-4.47l.56-.08,22.94-3.59,2.44-.38c.62-.52,1.28-1.25,1.79-1.74l2.85-2.85L338.48,71a4.86,4.86,0,1,0-2.83-4.41,4.79,4.79,0,0,0,.69,2.46l-4.16,4.17Zm-28.91,8.48a2.33,2.33,0,0,1-1.49,1h-.08A2.33,2.33,0,0,1,298,81h0a2.34,2.34,0,0,1,2.73,1.84A2.3,2.3,0,0,1,300.41,84.56Zm40.1-20.25a2.3,2.3,0,1,1-2.29,2.29A2.3,2.3,0,0,1,340.51,64.31Z"/><path class="cls-3" d="M286.67,80.49v88.35c0,.1.13,0,.19,0h79.4s0,.07,0,.1v12.49c0,.33.14.82-.35.68H246.59c-1,.26-1.42-.65-2.05-1.19l-4.85-4.85-8.4-8.41a6.9,6.9,0,0,0-1.15-8.27l-.18-.18a7,7,0,0,0-9.67,10l.18.18a7,7,0,0,0,5,1.86,6.91,6.91,0,0,0,3.09-.89l8.39,8.39,5.06,5.06c1.11.93,1.91,2.6,3.6,2.13H370c.05,0,.19,0,.18,0V165.22c0-.06,0-.18,0-.19H292c-2.11.65-1.33-1.59-1.48-2.9V84.34h22.7c.13,0,.19-.08.27-.16l.24-.24.48-.47,1-1,1.67-1.66,6-6L334,63.69a6.94,6.94,0,0,0,4.26,1.48h.25A6.91,6.91,0,0,0,343.34,63a6.15,6.15,0,0,0,1.57-2.81,8.83,8.83,0,0,0,.28-2.14,7.34,7.34,0,0,0-.27-1.72,6.92,6.92,0,0,0-6.67-5H338a7,7,0,0,0-4.85,2.22,6.88,6.88,0,0,0-1.86,5,7,7,0,0,0,.42,2.06L320.08,72.14l-6,6-1.32,1.33a8.92,8.92,0,0,1-1.11,1h-25Zm-59.18,86a3.06,3.06,0,0,1-2.16,1,3.12,3.12,0,0,1-2.23-.83l-.09-.08a3.11,3.11,0,0,1-.07-4.32,3.06,3.06,0,0,1,2.16-1,3.12,3.12,0,0,1,2.23.83h0A3.11,3.11,0,0,1,227.49,166.48ZM336,56.09a3.1,3.1,0,0,1,2.16-1h0a3.11,3.11,0,0,1,2.38,5.23,3.06,3.06,0,0,1-2.16,1h-.11A3.11,3.11,0,0,1,336,56.09Z"/><path class="cls-3" d="M475.93,24.69h.26A6.9,6.9,0,0,0,481,22.47a6.13,6.13,0,0,0,1.56-2.82h38.7a4.52,4.52,0,0,1,1.06.05l1.17,1.1c.07,0,.06.12.06.22v7c0,.16,0,.34-.06.34l-1.09,1-.34.32c-.12.09-.21.27-.39.22H498c-.1,0,0,.15-.05.21V133.56a6.92,6.92,0,0,0-5,6.67v.25a7,7,0,0,0,2.22,4.85,7,7,0,0,0,11.7-5.09V140a6.86,6.86,0,0,0-5-6.41V33.89s0-.13,0-.12h21.33c.32.09.47-.22.68-.39l.61-.57,2.72-2.55.2-.19c.07-.06.14-.12.11-.2V19.23c0-.08-.11-.13-.17-.2L524,15.94c-.13-.19-.3-.13-.47-.14H482.6a6.91,6.91,0,0,0-6.66-5h-.26a7,7,0,0,0,.25,13.92ZM502,138a3.1,3.1,0,0,1,1,2.16v.12a3.11,3.11,0,0,1-6.22.1h0a3.12,3.12,0,0,1,3-3.21A3.08,3.08,0,0,1,502,138ZM473.66,15.61a3.06,3.06,0,0,1,2.16-1h0a3.12,3.12,0,0,1,3.22,3,3.11,3.11,0,0,1-3,3.22h-.12a3.1,3.1,0,0,1-3.1-3A3,3,0,0,1,473.66,15.61Z"/><path class="cls-3" d="M396.49,494.79v-26a11.61,11.61,0,0,1,.05-1.57l2.72-2.72L434.78,429l17.76-17.76,4.58-4.57.71-.71.35-.36.18-.18a.2.2,0,0,0,.1-.2V382.58s0-.2,0-.15l-.15.15-.3.3-.61.62-2.44,2.43-4.88,4.88-8.28,8.28-2.84,2.84-1.37,1.37a7.94,7.94,0,0,1-1.05,1H330.9c-.1,0-.22,0-.28.07l-.42.43-.86.85-5.47,5.48-20.12,20.11a5.18,5.18,0,0,0-6.2.87l-.14.14a5.22,5.22,0,0,0,7.51,7.25l.14-.14a5.17,5.17,0,0,0,.73-6.07l20.1-20.1,5.23-5.23.48-.48.24-.24c.07-.11.22,0,.32-.06H437.64a.86.86,0,0,0,.16,0l.11-.12.23-.22.45-.46.91-.9L441,404l2.84-2.83,7-7,2.76-2.76L455,390l.35-.35.17-.17.09-.09s0,.07,0,.09v14.6a6.43,6.43,0,0,1-.76.82l-4.31,4.3L432.74,427l-35.52,35.52L393.69,466c-.11.07-.08.2-.08.32v28.46a4.86,4.86,0,1,0,2.88,0Zm-93.55-57.43-.06.06a2.32,2.32,0,0,1-3.23.06,2.35,2.35,0,0,1-.75-1.62,2.32,2.32,0,0,1,.63-1.68h0a2.34,2.34,0,0,1,4,1.51A2.31,2.31,0,0,1,302.94,437.36Zm92.11,64.34a2.3,2.3,0,0,1-1.3-4.19h2.6a2.3,2.3,0,0,1-1.3,4.19Z"/></g></g></g></g><path class="cls-3" d="M495.61,280.09H228.41a14.33,14.33,0,0,1-14.31-14.31V147.71a14.33,14.33,0,0,1,14.31-14.31h267.2a14.33,14.33,0,0,1,14.32,14.31V265.78A14.33,14.33,0,0,1,495.61,280.09ZM228.41,138.4a9.32,9.32,0,0,0-9.31,9.31V265.78a9.32,9.32,0,0,0,9.31,9.31h267.2a9.33,9.33,0,0,0,9.32-9.31V147.71a9.33,9.33,0,0,0-9.32-9.31Z"/></svg>